<?xml version="1.0" encoding="UTF-8" standalone="no"?>
<!-- Created with Inkscape (http://www.inkscape.org/) -->

<svg
   xmlns:dc="http://purl.org/dc/elements/1.1/"
   xmlns:cc="http://creativecommons.org/ns#"
   xmlns:rdf="http://www.w3.org/1999/02/22-rdf-syntax-ns#"
   xmlns:svg="http://www.w3.org/2000/svg"
   xmlns="http://www.w3.org/2000/svg"
   xmlns:sodipodi="http://sodipodi.sourceforge.net/DTD/sodipodi-0.dtd"
   xmlns:inkscape="http://www.inkscape.org/namespaces/inkscape"
   version="1.1"
   id="svg2"
   width="267.92728"
   height="51.49091"
   viewBox="0 0 267.92728 51.49091"
   sodipodi:docname="uml-is_aggregation_of.svg"
   inkscape:version="0.92.2 (5c3e80d, 2017-08-06)">
  <metadata
     id="metadata8">
    <rdf:RDF>
      <cc:Work
         rdf:about="">
        <dc:format>image/svg+xml</dc:format>
        <dc:type
           rdf:resource="http://purl.org/dc/dcmitype/StillImage" />
        <dc:title></dc:title>
      </cc:Work>
    </rdf:RDF>
  </metadata>
  <defs
     id="defs6" />
  <sodipodi:namedview
     pagecolor="#ffffff"
     bordercolor="#666666"
     borderopacity="1"
     objecttolerance="10"
     gridtolerance="10"
     guidetolerance="10"
     inkscape:pageopacity="0"
     inkscape:pageshadow="2"
     inkscape:window-width="640"
     inkscape:window-height="480"
     id="namedview4"
     showgrid="false"
     inkscape:zoom="1.4966748"
     inkscape:cx="133.96364"
     inkscape:cy="25.745455"
     inkscape:window-x="0"
     inkscape:window-y="0"
     inkscape:window-maximized="0"
     inkscape:current-layer="svg2" />
  <g
     id="g12">
    <path
       style="fill:#dddddd;fill-opacity:1;stroke-width:0.87272727"
       d="M 91.636366,27.054546 V 9.6000002 H 56.102706 20.569046 L 16.580382,13.528688 12.591718,17.457375 8.4762625,13.279092 4.3608068,9.1008089 8.5409566,4.9835148 12.721106,0.86622093 l 3.85752,3.93052597 3.857519,3.930526 H 56.472619 92.509093 V 26.181819 43.636364 H 135.70909 178.9091 V 26.181819 8.7272729 l 43.85454,0.2098473 43.85455,0.2098481 -43.41818,0.2346633 -43.41819,0.2346633 V 27.062693 44.509092 H 135.70909 91.636366 Z M 16.400142,5.4876121 12.724117,1.7420162 8.9785216,5.4180406 5.2329254,9.0940653 8.9089495,12.839661 12.584975,16.585257 16.33057,12.909233 20.076166,9.2332077 Z"
       id="path52"
       inkscape:connector-curvature="0" />
    <path
       style="fill:#d4d4d4;fill-opacity:1;stroke-width:0.87272727"
       d="M 91.636366,27.054546 V 9.6000002 H 56.102706 20.569046 L 16.580382,13.528688 12.591718,17.457375 8.4762625,13.279092 4.3608068,9.1008089 8.5409566,4.9835148 12.721106,0.86622093 l 3.85752,3.93052597 3.857519,3.930526 H 56.472619 92.509093 V 26.181819 43.636364 H 135.70909 178.9091 V 26.181819 8.7272729 l 43.85454,0.2098473 43.85455,0.2098481 -43.41818,0.2346633 -43.41819,0.2346633 V 27.062693 44.509092 H 135.70909 91.636366 Z M 16.400142,5.4876121 12.724117,1.7420162 8.9785216,5.4180406 5.2329254,9.0940653 8.9089495,12.839661 12.584975,16.585257 16.33057,12.909233 20.076166,9.2332077 Z"
       id="path50"
       inkscape:connector-curvature="0" />
    <path
       style="fill:#cbcbcb;fill-opacity:1;stroke-width:0.87272727"
       d="M 91.636366,27.054546 V 9.6000002 H 56.102706 20.569046 L 16.580382,13.528688 12.591718,17.457375 8.4762625,13.279092 4.3608068,9.1008089 8.5409566,4.9835148 12.721106,0.86622093 l 3.85752,3.93052597 3.857519,3.930526 H 56.472619 92.509093 V 26.181819 43.636364 H 135.70909 178.9091 V 26.181819 8.7272729 l 43.85454,0.2098473 43.85455,0.2098481 -43.41818,0.2346633 -43.41819,0.2346633 V 27.062693 44.509092 H 135.70909 91.636366 Z M 16.400142,5.4876121 12.724117,1.7420162 8.9785216,5.4180406 5.2329254,9.0940653 8.9089495,12.839661 12.584975,16.585257 16.33057,12.909233 20.076166,9.2332077 Z"
       id="path48"
       inkscape:connector-curvature="0" />
    <path
       style="fill:#c2c2c2;fill-opacity:1;stroke-width:0.87272727"
       d="M 91.636366,27.054546 V 9.6000002 H 56.102706 20.569046 L 16.580382,13.528688 12.591718,17.457375 8.4762625,13.279092 4.3608068,9.1008089 8.5409566,4.9835148 12.721106,0.86622093 l 3.85752,3.93052597 3.857519,3.930526 H 56.472619 92.509093 V 26.181819 43.636364 H 135.70909 178.9091 V 26.181819 8.7272729 l 43.85454,0.2098473 43.85455,0.2098481 -43.41818,0.2346633 -43.41819,0.2346633 V 27.062693 44.509092 H 135.70909 91.636366 Z M 16.400142,5.4876121 12.724117,1.7420162 8.9785216,5.4180406 5.2329254,9.0940653 8.9089495,12.839661 12.584975,16.585257 16.33057,12.909233 20.076166,9.2332077 Z"
       id="path46"
       inkscape:connector-curvature="0" />
    <path
       style="fill:#b9b9b9;fill-opacity:1;stroke-width:0.87272727"
       d="M 91.636366,27.054546 V 9.6000002 H 56.102706 20.569046 L 16.580382,13.528688 12.591718,17.457375 8.4762625,13.279092 4.3608068,9.1008089 8.5409566,4.9835148 12.721106,0.86622093 l 3.85752,3.93052597 3.857519,3.930526 H 56.472619 92.509093 V 26.181819 43.636364 H 135.70909 178.9091 V 26.181819 8.7272729 l 43.85454,0.2098473 43.85455,0.2098481 -43.41818,0.2346633 -43.41819,0.2346633 V 27.062693 44.509092 H 135.70909 91.636366 Z M 16.400142,5.4876121 12.724117,1.7420162 8.9785216,5.4180406 5.2329254,9.0940653 8.9089495,12.839661 12.584975,16.585257 16.33057,12.909233 20.076166,9.2332077 Z"
       id="path44"
       inkscape:connector-curvature="0" />
    <path
       style="fill:#b0b0b0;fill-opacity:1;stroke-width:0.87272727"
       d="M 91.636366,27.054546 V 9.6000002 H 56.102706 20.569046 L 16.580382,13.528688 12.591718,17.457375 8.4762625,13.279092 4.3608068,9.1008089 8.5409566,4.9835148 12.721106,0.86622093 l 3.85752,3.93052597 3.857519,3.930526 H 56.472619 92.509093 V 26.181819 43.636364 H 135.70909 178.9091 V 26.181819 8.7272729 l 43.85454,0.2098473 43.85455,0.2098481 -43.41818,0.2346633 -43.41819,0.2346633 V 27.062693 44.509092 H 135.70909 91.636366 Z M 16.400142,5.4876121 12.724117,1.7420162 8.9785216,5.4180406 5.2329254,9.0940653 8.9089495,12.839661 12.584975,16.585257 16.33057,12.909233 20.076166,9.2332077 Z"
       id="path42"
       inkscape:connector-curvature="0" />
    <path
       style="fill:#a7a7a7;fill-opacity:1;stroke-width:0.87272727"
       d="M 91.636366,27.054546 V 9.6000002 H 56.102706 20.569046 L 16.580382,13.528688 12.591718,17.457375 8.4762625,13.279092 4.3608068,9.1008089 8.5409566,4.9835148 12.721106,0.86622093 l 3.85752,3.93052597 3.857519,3.930526 H 56.472619 92.509093 V 26.181819 43.636364 H 135.70909 178.9091 V 26.181819 8.7272729 l 43.85454,0.2098473 43.85455,0.2098481 -43.41818,0.2346633 -43.41819,0.2346633 V 27.062693 44.509092 H 135.70909 91.636366 Z M 16.400142,5.4876121 12.724117,1.7420162 8.9785216,5.4180406 5.2329254,9.0940653 8.9089495,12.839661 12.584975,16.585257 16.33057,12.909233 20.076166,9.2332077 Z"
       id="path40"
       inkscape:connector-curvature="0" />
    <path
       style="fill:#9e9e9e;fill-opacity:1;stroke-width:0.87272727"
       d="M 91.636366,27.054546 V 9.6000002 H 56.102706 20.569046 L 16.580382,13.528688 12.591718,17.457375 8.4762625,13.279092 4.3608068,9.1008089 8.5409566,4.9835148 12.721106,0.86622093 l 3.85752,3.93052597 3.857519,3.930526 H 56.472619 92.509093 V 26.181819 43.636364 H 135.70909 178.9091 V 26.181819 8.7272729 l 43.85454,0.2098473 43.85455,0.2098481 -43.41818,0.2346633 -43.41819,0.2346633 V 27.062693 44.509092 H 135.70909 91.636366 Z M 16.400142,5.4876121 12.724117,1.7420162 8.9785216,5.4180406 5.2329254,9.0940653 8.9089495,12.839661 12.584975,16.585257 16.33057,12.909233 20.076166,9.2332077 Z"
       id="path38"
       inkscape:connector-curvature="0" />
    <path
       style="fill:#959595;fill-opacity:1;stroke-width:0.87272727"
       d="M 91.636366,27.054546 V 9.6000002 H 56.102706 20.569046 L 16.580382,13.528688 12.591718,17.457375 8.4762625,13.279092 4.3608068,9.1008089 8.5409566,4.9835148 12.721106,0.86622093 l 3.85752,3.93052597 3.857519,3.930526 H 56.472619 92.509093 V 26.181819 43.636364 H 135.70909 178.9091 V 26.181819 8.7272729 l 43.85454,0.2098473 43.85455,0.2098481 -43.41818,0.2346633 -43.41819,0.2346633 V 27.062693 44.509092 H 135.70909 91.636366 Z M 16.400142,5.4876121 12.724117,1.7420162 8.9785216,5.4180406 5.2329254,9.0940653 8.9089495,12.839661 12.584975,16.585257 16.33057,12.909233 20.076166,9.2332077 Z"
       id="path36"
       inkscape:connector-curvature="0" />
    <path
       style="fill:#8c8c8c;fill-opacity:1;stroke-width:0.87272727"
       d="M 91.636366,27.054546 V 9.6000002 H 56.102706 20.569046 L 16.580382,13.528688 12.591718,17.457375 8.4762625,13.279092 4.3608068,9.1008089 8.5409566,4.9835148 12.721106,0.86622093 l 3.85752,3.93052597 3.857519,3.930526 H 56.472619 92.509093 V 26.181819 43.636364 H 135.70909 178.9091 V 26.181819 8.7272729 l 43.85454,0.2098473 43.85455,0.2098481 -43.41818,0.2346633 -43.41819,0.2346633 V 27.062693 44.509092 H 135.70909 91.636366 Z M 16.400142,5.4876121 12.724117,1.7420162 8.9785216,5.4180406 5.2329254,9.0940653 8.9089495,12.839661 12.584975,16.585257 16.33057,12.909233 20.076166,9.2332077 Z"
       id="path34"
       inkscape:connector-curvature="0" />
    <path
       style="fill:#838383;fill-opacity:1;stroke-width:0.87272727"
       d="M 91.636366,27.054546 V 9.6000002 H 56.102706 20.569046 L 16.580382,13.528688 12.591718,17.457375 8.4762625,13.279092 4.3608068,9.1008089 8.5409566,4.9835148 12.721106,0.86622093 l 3.85752,3.93052597 3.857519,3.930526 H 56.472619 92.509093 V 26.181819 43.636364 H 135.70909 178.9091 V 26.181819 8.7272729 l 43.85454,0.2098473 43.85455,0.2098481 -43.41818,0.2346633 -43.41819,0.2346633 V 27.062693 44.509092 H 135.70909 91.636366 Z M 16.400142,5.4876121 12.724117,1.7420162 8.9785216,5.4180406 5.2329254,9.0940653 8.9089495,12.839661 12.584975,16.585257 16.33057,12.909233 20.076166,9.2332077 Z"
       id="path32"
       inkscape:connector-curvature="0" />
    <path
       style="fill:#7a7a7a;fill-opacity:1;stroke-width:0.87272727"
       d="M 91.636366,27.054546 V 9.6000002 H 56.102706 20.569046 L 16.580382,13.528688 12.591718,17.457375 8.4762625,13.279092 4.3608068,9.1008089 8.5409566,4.9835148 12.721106,0.86622093 l 3.85752,3.93052597 3.857519,3.930526 H 56.472619 92.509093 V 26.181819 43.636364 H 135.70909 178.9091 V 26.181819 8.7272729 l 43.85454,0.2098473 43.85455,0.2098481 -43.41818,0.2346633 -43.41819,0.2346633 V 27.062693 44.509092 H 135.70909 91.636366 Z M 16.400142,5.4876121 12.724117,1.7420162 8.9785216,5.4180406 5.2329254,9.0940653 8.9089495,12.839661 12.584975,16.585257 16.33057,12.909233 20.076166,9.2332077 Z"
       id="path30"
       inkscape:connector-curvature="0" />
    <path
       style="fill:#717171;fill-opacity:1;stroke-width:0.87272727"
       d="M 91.636366,27.054546 V 9.6000002 H 56.102706 20.569046 L 16.580382,13.528688 12.591718,17.457375 8.4762625,13.279092 4.3608068,9.1008089 8.5409566,4.9835148 12.721106,0.86622093 l 3.85752,3.93052597 3.857519,3.930526 H 56.472619 92.509093 V 26.181819 43.636364 H 135.70909 178.9091 V 26.181819 8.7272729 l 43.85454,0.2098473 43.85455,0.2098481 -43.41818,0.2346633 -43.41819,0.2346633 V 27.062693 44.509092 H 135.70909 91.636366 Z M 16.400142,5.4876121 12.724117,1.7420162 8.9785216,5.4180406 5.2329254,9.0940653 8.9089495,12.839661 12.584975,16.585257 16.33057,12.909233 20.076166,9.2332077 Z"
       id="path28"
       inkscape:connector-curvature="0" />
    <path
       style="fill:#686868;fill-opacity:1;stroke-width:0.87272727"
       d="M 91.636366,27.054546 V 9.6000002 H 56.102706 20.569046 L 16.580382,13.528688 12.591718,17.457375 8.4762625,13.279092 4.3608068,9.1008089 8.5409566,4.9835148 12.721106,0.86622093 l 3.85752,3.93052597 3.857519,3.930526 H 56.472619 92.509093 V 26.181819 43.636364 H 135.70909 178.9091 V 26.181819 8.7272729 l 43.85454,0.2098473 43.85455,0.2098481 -43.41818,0.2346633 -43.41819,0.2346633 V 27.062693 44.509092 H 135.70909 91.636366 Z M 16.400142,5.4876121 12.724117,1.7420162 8.9785216,5.4180406 5.2329254,9.0940653 8.9089495,12.839661 12.584975,16.585257 16.33057,12.909233 20.076166,9.2332077 Z"
       id="path26"
       inkscape:connector-curvature="0" />
    <path
       style="fill:#5f5f5f;fill-opacity:1;stroke-width:0.87272727"
       d="M 91.636366,27.054546 V 9.6000002 H 56.102706 20.569046 L 16.580382,13.528688 12.591718,17.457375 8.4762625,13.279092 4.3608068,9.1008089 8.5409566,4.9835148 12.721106,0.86622093 l 3.85752,3.93052597 3.857519,3.930526 H 56.472619 92.509093 V 26.181819 43.636364 H 135.70909 178.9091 V 26.181819 8.7272729 l 43.85454,0.2098473 43.85455,0.2098481 -43.41818,0.2346633 -43.41819,0.2346633 V 27.062693 44.509092 H 135.70909 91.636366 Z M 16.400142,5.4876121 12.724117,1.7420162 8.9785216,5.4180406 5.2329254,9.0940653 8.9089495,12.839661 12.584975,16.585257 16.33057,12.909233 20.076166,9.2332077 Z"
       id="path24"
       inkscape:connector-curvature="0" />
    <path
       style="fill:#575757;fill-opacity:1;stroke-width:0.87272727"
       d="M 91.636366,27.054546 V 9.6000002 H 56.102706 20.569046 L 16.580382,13.528688 12.591718,17.457375 8.4762625,13.279092 4.3608068,9.1008089 8.5409566,4.9835148 12.721106,0.86622093 l 3.85752,3.93052597 3.857519,3.930526 H 56.472619 92.509093 V 26.181819 43.636364 H 135.70909 178.9091 V 26.181819 8.7272729 l 43.85454,0.2098473 43.85455,0.2098481 -43.41818,0.2346633 -43.41819,0.2346633 V 27.062693 44.509092 H 135.70909 91.636366 Z M 16.400142,5.4876121 12.724117,1.7420162 8.9785216,5.4180406 5.2329254,9.0940653 8.9089495,12.839661 12.584975,16.585257 16.33057,12.909233 20.076166,9.2332077 Z"
       id="path22"
       inkscape:connector-curvature="0" />
    <path
       style="fill:#4e4e4e;fill-opacity:1;stroke-width:0.87272727"
       d="M 91.636366,27.054546 V 9.6000002 H 56.102706 20.569046 L 16.580382,13.528688 12.591718,17.457375 8.4762625,13.279092 4.3608068,9.1008089 8.5409566,4.9835148 12.721106,0.86622093 l 3.85752,3.93052597 3.857519,3.930526 H 56.472619 92.509093 V 26.181819 43.636364 H 135.70909 178.9091 V 26.181819 8.7272729 l 43.85454,0.2098473 43.85455,0.2098481 -43.41818,0.2346633 -43.41819,0.2346633 V 27.062693 44.509092 H 135.70909 91.636366 Z M 16.400142,5.4876121 12.724117,1.7420162 8.9785216,5.4180406 5.2329254,9.0940653 8.9089495,12.839661 12.584975,16.585257 16.33057,12.909233 20.076166,9.2332077 Z"
       id="path20"
       inkscape:connector-curvature="0" />
    <path
       style="fill:#454545;fill-opacity:1;stroke-width:0.87272727"
       d="M 91.636366,27.054546 V 9.6000002 H 56.102706 20.569046 L 16.580382,13.528688 12.591718,17.457375 8.4762625,13.279092 4.3608068,9.1008089 8.5409566,4.9835148 12.721106,0.86622093 l 3.85752,3.93052597 3.857519,3.930526 H 56.472619 92.509093 V 26.181819 43.636364 H 135.70909 178.9091 V 26.181819 8.7272729 l 43.85454,0.2098473 43.85455,0.2098481 -43.41818,0.2346633 -43.41819,0.2346633 V 27.062693 44.509092 H 135.70909 91.636366 Z M 16.400142,5.4876121 12.724117,1.7420162 8.9785216,5.4180406 5.2329254,9.0940653 8.9089495,12.839661 12.584975,16.585257 16.33057,12.909233 20.076166,9.2332077 Z"
       id="path18"
       inkscape:connector-curvature="0" />
    <path
       style="fill:#3c3c3c;fill-opacity:1;stroke-width:0.87272727"
       d="M 91.636366,27.054546 V 9.6000002 H 56.102706 20.569046 L 16.580382,13.528688 12.591718,17.457375 8.4762625,13.279092 4.3608068,9.1008089 8.5409566,4.9835148 12.721106,0.86622093 l 3.85752,3.93052597 3.857519,3.930526 H 56.472619 92.509093 V 26.181819 43.636364 H 135.70909 178.9091 V 26.181819 8.7272729 l 43.85454,0.2098473 43.85455,0.2098481 -43.41818,0.2346633 -43.41819,0.2346633 V 27.062693 44.509092 H 135.70909 91.636366 Z M 16.400142,5.4876121 12.724117,1.7420162 8.9785216,5.4180406 5.2329254,9.0940653 8.9089495,12.839661 12.584975,16.585257 16.33057,12.909233 20.076166,9.2332077 Z"
       id="path16"
       inkscape:connector-curvature="0" />
    <path
       style="fill:#333333;fill-opacity:1;stroke-width:0.87272727"
       d="M 91.636366,27.054546 V 9.6000002 H 56.102706 20.569046 L 16.580382,13.528688 12.591718,17.457375 8.4762625,13.279092 4.3608068,9.1008089 8.5409566,4.9835148 12.721106,0.86622093 l 3.85752,3.93052597 3.857519,3.930526 H 56.472619 92.509093 V 26.181819 43.636364 H 135.70909 178.9091 V 26.181819 8.7272729 l 43.85454,0.2098473 43.85455,0.2098481 -43.41818,0.2346633 -43.41819,0.2346633 V 27.062693 44.509092 H 135.70909 91.636366 Z M 16.400142,5.4876121 12.724117,1.7420162 8.9785216,5.4180406 5.2329254,9.0940653 8.9089495,12.839661 12.584975,16.585257 16.33057,12.909233 20.076166,9.2332077 Z"
       id="path14"
       inkscape:connector-curvature="0" />
  </g>
</svg>
