<?xml version="1.0" encoding="UTF-8" standalone="no"?>
<!-- Created with Inkscape (http://www.inkscape.org/) -->

<svg
   xmlns:dc="http://purl.org/dc/elements/1.1/"
   xmlns:cc="http://creativecommons.org/ns#"
   xmlns:rdf="http://www.w3.org/1999/02/22-rdf-syntax-ns#"
   xmlns:svg="http://www.w3.org/2000/svg"
   xmlns="http://www.w3.org/2000/svg"
   xmlns:sodipodi="http://sodipodi.sourceforge.net/DTD/sodipodi-0.dtd"
   xmlns:inkscape="http://www.inkscape.org/namespaces/inkscape"
   version="1.1"
   id="svg2"
   width="264.43637"
   height="58.472729"
   viewBox="0 0 264.43637 58.472729"
   sodipodi:docname="uml-is_composition_of.svg"
   inkscape:version="0.92.2 (5c3e80d, 2017-08-06)">
  <metadata
     id="metadata8">
    <rdf:RDF>
      <cc:Work
         rdf:about="">
        <dc:format>image/svg+xml</dc:format>
        <dc:type
           rdf:resource="http://purl.org/dc/dcmitype/StillImage" />
        <dc:title></dc:title>
      </cc:Work>
    </rdf:RDF>
  </metadata>
  <defs
     id="defs6" />
  <sodipodi:namedview
     pagecolor="#ffffff"
     bordercolor="#666666"
     borderopacity="1"
     objecttolerance="10"
     gridtolerance="10"
     guidetolerance="10"
     inkscape:pageopacity="0"
     inkscape:pageshadow="2"
     inkscape:window-width="640"
     inkscape:window-height="480"
     id="namedview4"
     showgrid="false"
     inkscape:zoom="1.5164329"
     inkscape:cx="132.21819"
     inkscape:cy="29.236364"
     inkscape:window-x="70"
     inkscape:window-y="17"
     inkscape:window-maximized="0"
     inkscape:current-layer="svg2" />
  <g
     id="g12">
    <path
       style="fill:#d0d0d0;fill-opacity:1;stroke-width:0.87272727"
       d="M 88.145457,32.29091 V 14.836364 H 52.611797 17.078137 L 13.089473,18.765052 9.1008089,22.693739 4.9853533,18.515456 0.86989764,14.337173 5.0500474,10.219878 9.2301969,6.1025847 13.087717,10.03311 16.945236,13.963637 H 52.98171 89.018184 v 17.454546 17.454546 h 43.199996 43.20001 V 31.418183 13.963637 l 43.85454,0.209847 43.85455,0.209848 -43.41818,0.234663 -43.41819,0.234664 V 32.299057 49.745456 H 132.21818 88.145457 Z"
       id="path28"
       inkscape:connector-curvature="0" />
    <path
       style="fill:#b9b9b9;fill-opacity:1;stroke-width:0.87272727"
       d="M 88.145457,32.29091 V 14.836364 H 52.611797 17.078137 L 13.089473,18.765052 9.1008089,22.693739 4.9853533,18.515456 0.86989764,14.337173 5.0500474,10.219878 9.2301969,6.1025847 13.087717,10.03311 16.945236,13.963637 H 52.98171 89.018184 v 17.454546 17.454546 h 43.199996 43.20001 V 31.418183 13.963637 l 43.85454,0.209847 43.85455,0.209848 -43.41818,0.234663 -43.41819,0.234664 V 32.299057 49.745456 H 132.21818 88.145457 Z"
       id="path26"
       inkscape:connector-curvature="0" />
    <path
       style="fill:#a3a3a3;fill-opacity:1;stroke-width:0.87272727"
       d="M 88.145457,32.29091 V 14.836364 H 52.611797 17.078137 L 13.089473,18.765052 9.1008089,22.693739 4.9853533,18.515456 0.86989764,14.337173 5.0500474,10.219878 9.2301969,6.1025847 13.087717,10.03311 16.945236,13.963637 H 52.98171 89.018184 v 17.454546 17.454546 h 43.199996 43.20001 V 31.418183 13.963637 l 43.85454,0.209847 43.85455,0.209848 -43.41818,0.234663 -43.41819,0.234664 V 32.299057 49.745456 H 132.21818 88.145457 Z"
       id="path24"
       inkscape:connector-curvature="0" />
    <path
       style="fill:#8c8c8c;fill-opacity:1;stroke-width:0.87272727"
       d="M 88.145457,32.29091 V 14.836364 H 52.611797 17.078137 L 13.089473,18.765052 9.1008089,22.693739 4.9853533,18.515456 0.86989764,14.337173 5.0500474,10.219878 9.2301969,6.1025847 13.087717,10.03311 16.945236,13.963637 H 52.98171 89.018184 v 17.454546 17.454546 h 43.199996 43.20001 V 31.418183 13.963637 l 43.85454,0.209847 43.85455,0.209848 -43.41818,0.234663 -43.41819,0.234664 V 32.299057 49.745456 H 132.21818 88.145457 Z"
       id="path22"
       inkscape:connector-curvature="0" />
    <path
       style="fill:#767676;fill-opacity:1;stroke-width:0.87272727"
       d="M 88.145457,32.29091 V 14.836364 H 52.611797 17.078137 L 13.089473,18.765052 9.1008089,22.693739 4.9853533,18.515456 0.86989764,14.337173 5.0500474,10.219878 9.2301969,6.1025847 13.087717,10.03311 16.945236,13.963637 H 52.98171 89.018184 v 17.454546 17.454546 h 43.199996 43.20001 V 31.418183 13.963637 l 43.85454,0.209847 43.85455,0.209848 -43.41818,0.234663 -43.41819,0.234664 V 32.299057 49.745456 H 132.21818 88.145457 Z"
       id="path20"
       inkscape:connector-curvature="0" />
    <path
       style="fill:#606060;fill-opacity:1;stroke-width:0.87272727"
       d="M 88.145457,32.29091 V 14.836364 H 52.611797 17.078137 L 13.089473,18.765052 9.1008089,22.693739 4.9853533,18.515456 0.86989764,14.337173 5.0500474,10.219878 9.2301969,6.1025847 13.087717,10.03311 16.945236,13.963637 H 52.98171 89.018184 v 17.454546 17.454546 h 43.199996 43.20001 V 31.418183 13.963637 l 43.85454,0.209847 43.85455,0.209848 -43.41818,0.234663 -43.41819,0.234664 V 32.299057 49.745456 H 132.21818 88.145457 Z"
       id="path18"
       inkscape:connector-curvature="0" />
    <path
       style="fill:#494949;fill-opacity:1;stroke-width:0.87272727"
       d="M 88.145457,32.29091 V 14.836364 H 52.611797 17.078137 L 13.089473,18.765052 9.1008089,22.693739 4.9853533,18.515456 0.86989764,14.337173 5.0500474,10.219878 9.2301969,6.1025847 13.087717,10.03311 16.945236,13.963637 H 52.98171 89.018184 v 17.454546 17.454546 h 43.199996 43.20001 V 31.418183 13.963637 l 43.85454,0.209847 43.85455,0.209848 -43.41818,0.234663 -43.41819,0.234664 V 32.299057 49.745456 H 132.21818 88.145457 Z"
       id="path16"
       inkscape:connector-curvature="0" />
    <path
       style="fill:#333333;fill-opacity:1;stroke-width:0.87272727"
       d="M 88.145457,32.29091 V 14.836364 H 52.611797 17.078137 L 13.089473,18.765052 9.1008089,22.693739 4.9853533,18.515456 0.86989764,14.337173 5.0500474,10.219878 9.2301969,6.1025847 13.087717,10.03311 16.945236,13.963637 H 52.98171 89.018184 v 17.454546 17.454546 h 43.199996 43.20001 V 31.418183 13.963637 l 43.85454,0.209847 43.85455,0.209848 -43.41818,0.234663 -43.41819,0.234664 V 32.299057 49.745456 H 132.21818 88.145457 Z"
       id="path14"
       inkscape:connector-curvature="0" />
  </g>
</svg>
