<?xml version="1.0" encoding="UTF-8" standalone="no"?>
<!-- Created with Inkscape (http://www.inkscape.org/) -->

<svg
   xmlns:dc="http://purl.org/dc/elements/1.1/"
   xmlns:cc="http://creativecommons.org/ns#"
   xmlns:rdf="http://www.w3.org/1999/02/22-rdf-syntax-ns#"
   xmlns:svg="http://www.w3.org/2000/svg"
   xmlns="http://www.w3.org/2000/svg"
   xmlns:sodipodi="http://sodipodi.sourceforge.net/DTD/sodipodi-0.dtd"
   xmlns:inkscape="http://www.inkscape.org/namespaces/inkscape"
   version="1.1"
   id="svg2"
   width="174.54546"
   height="58.472729"
   viewBox="0 0 174.54546 58.472729"
   sodipodi:docname="uml-constraint.svg"
   inkscape:version="0.92.2 (5c3e80d, 2017-08-06)">
  <metadata
     id="metadata8">
    <rdf:RDF>
      <cc:Work
         rdf:about="">
        <dc:format>image/svg+xml</dc:format>
        <dc:type
           rdf:resource="http://purl.org/dc/dcmitype/StillImage" />
        <dc:title></dc:title>
      </cc:Work>
    </rdf:RDF>
  </metadata>
  <defs
     id="defs6" />
  <sodipodi:namedview
     pagecolor="#ffffff"
     bordercolor="#666666"
     borderopacity="1"
     objecttolerance="10"
     gridtolerance="10"
     guidetolerance="10"
     inkscape:pageopacity="0"
     inkscape:pageshadow="2"
     inkscape:window-width="1920"
     inkscape:window-height="1007"
     id="namedview4"
     showgrid="false"
     inkscape:zoom="2.2973958"
     inkscape:cx="87.272728"
     inkscape:cy="133.70247"
     inkscape:window-x="-9"
     inkscape:window-y="-9"
     inkscape:window-maximized="1"
     inkscape:current-layer="svg2" />
  <path
     style="fill:#000000;stroke-width:0.87272727"
     d="M 1.8876446,58.324009 C 1.5676445,58.00401 1.3058264,45.044009 1.3058264,29.524008 V 1.3058264 H 81.030123 160.75443 l 5.80297,9.3771436 5.80298,9.377145 V 39.482971 58.905828 H 87.41492 c -46.720002,0 -85.2072755,-0.261818 -85.5272754,-0.581819 z M 170.61493,38.8331 V 20.505827 h -5.67273 -5.67273 V 11.34219 2.1785537 H 80.72401 2.1785537 V 29.669463 57.160373 H 86.396738 170.61493 Z m -0.89032,-19.854546 c -0.01,-0.36 -2.16175,-3.992728 -4.78241,-8.072727 l -4.76484,-7.4181824 -0.0175,8.0727274 -0.0176,8.072727 h 4.8 c 2.64,0 4.79208,-0.294545 4.78241,-0.654545 z"
     id="path12"
     inkscape:connector-curvature="0" />
</svg>
