<?xml version="1.0" encoding="UTF-8" standalone="no"?>
<!-- Created with Inkscape (http://www.inkscape.org/) -->

<svg
   xmlns:dc="http://purl.org/dc/elements/1.1/"
   xmlns:cc="http://creativecommons.org/ns#"
   xmlns:rdf="http://www.w3.org/1999/02/22-rdf-syntax-ns#"
   xmlns:svg="http://www.w3.org/2000/svg"
   xmlns="http://www.w3.org/2000/svg"
   xmlns:sodipodi="http://sodipodi.sourceforge.net/DTD/sodipodi-0.dtd"
   xmlns:inkscape="http://www.inkscape.org/namespaces/inkscape"
   version="1.1"
   id="svg2"
   width="267.05453"
   height="50.618183"
   viewBox="0 0 267.05453 50.618183"
   sodipodi:docname="uml-generalization.svg"
   inkscape:version="0.92.2 (5c3e80d, 2017-08-06)">
  <metadata
     id="metadata8">
    <rdf:RDF>
      <cc:Work
         rdf:about="">
        <dc:format>image/svg+xml</dc:format>
        <dc:type
           rdf:resource="http://purl.org/dc/dcmitype/StillImage" />
        <dc:title></dc:title>
      </cc:Work>
    </rdf:RDF>
  </metadata>
  <defs
     id="defs6" />
  <sodipodi:namedview
     pagecolor="#ffffff"
     bordercolor="#666666"
     borderopacity="1"
     objecttolerance="10"
     gridtolerance="10"
     guidetolerance="10"
     inkscape:pageopacity="0"
     inkscape:pageshadow="2"
     inkscape:window-width="640"
     inkscape:window-height="480"
     id="namedview4"
     showgrid="false"
     inkscape:zoom="1.501566"
     inkscape:cx="133.52727"
     inkscape:cy="25.309092"
     inkscape:window-x="0"
     inkscape:window-y="0"
     inkscape:window-maximized="0"
     inkscape:current-layer="svg2" />
  <g
     id="g12">
    <path
       style="fill:#e6e6e6;fill-opacity:1;stroke-width:0.87272727"
       d="M 90.763631,29.6808 V 12.234326 L 46.909088,11.999817 3.0545453,11.765308 47.345452,11.555382 91.636358,11.345455 v 17.454546 17.454546 h 43.200002 43.19999 V 28.800001 11.345455 h 33.99649 33.99649 l 0.25805,-5.6315121 0.25806,-5.63151182 9.44831,5.51756162 c 5.19658,3.034659 9.44832,5.8164803 9.44832,6.1818253 0,0.365346 -4.25174,3.147167 -9.44832,6.181826 l -9.44831,5.517562 -0.25806,-5.631512 -0.25805,-5.631512 H 212.4692 178.90908 V 29.672728 47.127274 H 134.83636 90.763631 Z m 166.383459,-13.24126 7.98346,-4.690341 -8.27171,-4.7836903 c -4.54945,-2.6310297 -8.63291,-4.9145996 -9.07437,-5.0745995 -0.45922,-0.1664329 -0.80267,4.0745946 -0.80267,9.9115538 0,7.813498 0.25544,10.100015 1.09091,9.76494 0.6,-0.240637 4.68347,-2.548176 9.07438,-5.127863 z"
       id="path34"
       inkscape:connector-curvature="0" />
    <path
       style="fill:#d4d4d4;fill-opacity:1;stroke-width:0.87272727"
       d="M 90.763631,29.6808 V 12.234326 L 46.909088,11.999817 3.0545453,11.765308 47.345452,11.555382 91.636358,11.345455 v 17.454546 17.454546 h 43.200002 43.19999 V 28.800001 11.345455 h 33.99649 33.99649 l 0.25805,-5.6315121 0.25806,-5.63151182 9.44831,5.51756162 c 5.19658,3.034659 9.44832,5.8164803 9.44832,6.1818253 0,0.365346 -4.25174,3.147167 -9.44832,6.181826 l -9.44831,5.517562 -0.25806,-5.631512 -0.25805,-5.631512 H 212.4692 178.90908 V 29.672728 47.127274 H 134.83636 90.763631 Z m 166.383459,-13.24126 7.98346,-4.690341 -8.27171,-4.7836903 c -4.54945,-2.6310297 -8.63291,-4.9145996 -9.07437,-5.0745995 -0.45922,-0.1664329 -0.80267,4.0745946 -0.80267,9.9115538 0,7.813498 0.25544,10.100015 1.09091,9.76494 0.6,-0.240637 4.68347,-2.548176 9.07438,-5.127863 z"
       id="path32"
       inkscape:connector-curvature="0" />
    <path
       style="fill:#c2c2c2;fill-opacity:1;stroke-width:0.87272727"
       d="M 90.763631,29.6808 V 12.234326 L 46.909088,11.999817 3.0545453,11.765308 47.345452,11.555382 91.636358,11.345455 v 17.454546 17.454546 h 43.200002 43.19999 V 28.800001 11.345455 h 33.99649 33.99649 l 0.25805,-5.6315121 0.25806,-5.63151182 9.44831,5.51756162 c 5.19658,3.034659 9.44832,5.8164803 9.44832,6.1818253 0,0.365346 -4.25174,3.147167 -9.44832,6.181826 l -9.44831,5.517562 -0.25806,-5.631512 -0.25805,-5.631512 H 212.4692 178.90908 V 29.672728 47.127274 H 134.83636 90.763631 Z m 166.383459,-13.24126 7.98346,-4.690341 -8.27171,-4.7836903 c -4.54945,-2.6310297 -8.63291,-4.9145996 -9.07437,-5.0745995 -0.45922,-0.1664329 -0.80267,4.0745946 -0.80267,9.9115538 0,7.813498 0.25544,10.100015 1.09091,9.76494 0.6,-0.240637 4.68347,-2.548176 9.07438,-5.127863 z"
       id="path30"
       inkscape:connector-curvature="0" />
    <path
       style="fill:#b0b0b0;fill-opacity:1;stroke-width:0.87272727"
       d="M 90.763631,29.6808 V 12.234326 L 46.909088,11.999817 3.0545453,11.765308 47.345452,11.555382 91.636358,11.345455 v 17.454546 17.454546 h 43.200002 43.19999 V 28.800001 11.345455 h 33.99649 33.99649 l 0.25805,-5.6315121 0.25806,-5.63151182 9.44831,5.51756162 c 5.19658,3.034659 9.44832,5.8164803 9.44832,6.1818253 0,0.365346 -4.25174,3.147167 -9.44832,6.181826 l -9.44831,5.517562 -0.25806,-5.631512 -0.25805,-5.631512 H 212.4692 178.90908 V 29.672728 47.127274 H 134.83636 90.763631 Z m 166.383459,-13.24126 7.98346,-4.690341 -8.27171,-4.7836903 c -4.54945,-2.6310297 -8.63291,-4.9145996 -9.07437,-5.0745995 -0.45922,-0.1664329 -0.80267,4.0745946 -0.80267,9.9115538 0,7.813498 0.25544,10.100015 1.09091,9.76494 0.6,-0.240637 4.68347,-2.548176 9.07438,-5.127863 z"
       id="path28"
       inkscape:connector-curvature="0" />
    <path
       style="fill:#9e9e9e;fill-opacity:1;stroke-width:0.87272727"
       d="M 90.763631,29.6808 V 12.234326 L 46.909088,11.999817 3.0545453,11.765308 47.345452,11.555382 91.636358,11.345455 v 17.454546 17.454546 h 43.200002 43.19999 V 28.800001 11.345455 h 33.99649 33.99649 l 0.25805,-5.6315121 0.25806,-5.63151182 9.44831,5.51756162 c 5.19658,3.034659 9.44832,5.8164803 9.44832,6.1818253 0,0.365346 -4.25174,3.147167 -9.44832,6.181826 l -9.44831,5.517562 -0.25806,-5.631512 -0.25805,-5.631512 H 212.4692 178.90908 V 29.672728 47.127274 H 134.83636 90.763631 Z m 166.383459,-13.24126 7.98346,-4.690341 -8.27171,-4.7836903 c -4.54945,-2.6310297 -8.63291,-4.9145996 -9.07437,-5.0745995 -0.45922,-0.1664329 -0.80267,4.0745946 -0.80267,9.9115538 0,7.813498 0.25544,10.100015 1.09091,9.76494 0.6,-0.240637 4.68347,-2.548176 9.07438,-5.127863 z"
       id="path26"
       inkscape:connector-curvature="0" />
    <path
       style="fill:#8c8c8c;fill-opacity:1;stroke-width:0.87272727"
       d="M 90.763631,29.6808 V 12.234326 L 46.909088,11.999817 3.0545453,11.765308 47.345452,11.555382 91.636358,11.345455 v 17.454546 17.454546 h 43.200002 43.19999 V 28.800001 11.345455 h 33.99649 33.99649 l 0.25805,-5.6315121 0.25806,-5.63151182 9.44831,5.51756162 c 5.19658,3.034659 9.44832,5.8164803 9.44832,6.1818253 0,0.365346 -4.25174,3.147167 -9.44832,6.181826 l -9.44831,5.517562 -0.25806,-5.631512 -0.25805,-5.631512 H 212.4692 178.90908 V 29.672728 47.127274 H 134.83636 90.763631 Z m 166.383459,-13.24126 7.98346,-4.690341 -8.27171,-4.7836903 c -4.54945,-2.6310297 -8.63291,-4.9145996 -9.07437,-5.0745995 -0.45922,-0.1664329 -0.80267,4.0745946 -0.80267,9.9115538 0,7.813498 0.25544,10.100015 1.09091,9.76494 0.6,-0.240637 4.68347,-2.548176 9.07438,-5.127863 z"
       id="path24"
       inkscape:connector-curvature="0" />
    <path
       style="fill:#7a7a7a;fill-opacity:1;stroke-width:0.87272727"
       d="M 90.763631,29.6808 V 12.234326 L 46.909088,11.999817 3.0545453,11.765308 47.345452,11.555382 91.636358,11.345455 v 17.454546 17.454546 h 43.200002 43.19999 V 28.800001 11.345455 h 33.99649 33.99649 l 0.25805,-5.6315121 0.25806,-5.63151182 9.44831,5.51756162 c 5.19658,3.034659 9.44832,5.8164803 9.44832,6.1818253 0,0.365346 -4.25174,3.147167 -9.44832,6.181826 l -9.44831,5.517562 -0.25806,-5.631512 -0.25805,-5.631512 H 212.4692 178.90908 V 29.672728 47.127274 H 134.83636 90.763631 Z m 166.383459,-13.24126 7.98346,-4.690341 -8.27171,-4.7836903 c -4.54945,-2.6310297 -8.63291,-4.9145996 -9.07437,-5.0745995 -0.45922,-0.1664329 -0.80267,4.0745946 -0.80267,9.9115538 0,7.813498 0.25544,10.100015 1.09091,9.76494 0.6,-0.240637 4.68347,-2.548176 9.07438,-5.127863 z"
       id="path22"
       inkscape:connector-curvature="0" />
    <path
       style="fill:#686868;fill-opacity:1;stroke-width:0.87272727"
       d="M 90.763631,29.6808 V 12.234326 L 46.909088,11.999817 3.0545453,11.765308 47.345452,11.555382 91.636358,11.345455 v 17.454546 17.454546 h 43.200002 43.19999 V 28.800001 11.345455 h 33.99649 33.99649 l 0.25805,-5.6315121 0.25806,-5.63151182 9.44831,5.51756162 c 5.19658,3.034659 9.44832,5.8164803 9.44832,6.1818253 0,0.365346 -4.25174,3.147167 -9.44832,6.181826 l -9.44831,5.517562 -0.25806,-5.631512 -0.25805,-5.631512 H 212.4692 178.90908 V 29.672728 47.127274 H 134.83636 90.763631 Z m 166.383459,-13.24126 7.98346,-4.690341 -8.27171,-4.7836903 c -4.54945,-2.6310297 -8.63291,-4.9145996 -9.07437,-5.0745995 -0.45922,-0.1664329 -0.80267,4.0745946 -0.80267,9.9115538 0,7.813498 0.25544,10.100015 1.09091,9.76494 0.6,-0.240637 4.68347,-2.548176 9.07438,-5.127863 z"
       id="path20"
       inkscape:connector-curvature="0" />
    <path
       style="fill:#575757;fill-opacity:1;stroke-width:0.87272727"
       d="M 90.763631,29.6808 V 12.234326 L 46.909088,11.999817 3.0545453,11.765308 47.345452,11.555382 91.636358,11.345455 v 17.454546 17.454546 h 43.200002 43.19999 V 28.800001 11.345455 h 33.99649 33.99649 l 0.25805,-5.6315121 0.25806,-5.63151182 9.44831,5.51756162 c 5.19658,3.034659 9.44832,5.8164803 9.44832,6.1818253 0,0.365346 -4.25174,3.147167 -9.44832,6.181826 l -9.44831,5.517562 -0.25806,-5.631512 -0.25805,-5.631512 H 212.4692 178.90908 V 29.672728 47.127274 H 134.83636 90.763631 Z m 166.383459,-13.24126 7.98346,-4.690341 -8.27171,-4.7836903 c -4.54945,-2.6310297 -8.63291,-4.9145996 -9.07437,-5.0745995 -0.45922,-0.1664329 -0.80267,4.0745946 -0.80267,9.9115538 0,7.813498 0.25544,10.100015 1.09091,9.76494 0.6,-0.240637 4.68347,-2.548176 9.07438,-5.127863 z"
       id="path18"
       inkscape:connector-curvature="0" />
    <path
       style="fill:#454545;fill-opacity:1;stroke-width:0.87272727"
       d="M 90.763631,29.6808 V 12.234326 L 46.909088,11.999817 3.0545453,11.765308 47.345452,11.555382 91.636358,11.345455 v 17.454546 17.454546 h 43.200002 43.19999 V 28.800001 11.345455 h 33.99649 33.99649 l 0.25805,-5.6315121 0.25806,-5.63151182 9.44831,5.51756162 c 5.19658,3.034659 9.44832,5.8164803 9.44832,6.1818253 0,0.365346 -4.25174,3.147167 -9.44832,6.181826 l -9.44831,5.517562 -0.25806,-5.631512 -0.25805,-5.631512 H 212.4692 178.90908 V 29.672728 47.127274 H 134.83636 90.763631 Z m 166.383459,-13.24126 7.98346,-4.690341 -8.27171,-4.7836903 c -4.54945,-2.6310297 -8.63291,-4.9145996 -9.07437,-5.0745995 -0.45922,-0.1664329 -0.80267,4.0745946 -0.80267,9.9115538 0,7.813498 0.25544,10.100015 1.09091,9.76494 0.6,-0.240637 4.68347,-2.548176 9.07438,-5.127863 z"
       id="path16"
       inkscape:connector-curvature="0" />
    <path
       style="fill:#333333;fill-opacity:1;stroke-width:0.87272727"
       d="M 90.763631,29.6808 V 12.234326 L 46.909088,11.999817 3.0545453,11.765308 47.345452,11.555382 91.636358,11.345455 v 17.454546 17.454546 h 43.200002 43.19999 V 28.800001 11.345455 h 33.99649 33.99649 l 0.25805,-5.6315121 0.25806,-5.63151182 9.44831,5.51756162 c 5.19658,3.034659 9.44832,5.8164803 9.44832,6.1818253 0,0.365346 -4.25174,3.147167 -9.44832,6.181826 l -9.44831,5.517562 -0.25806,-5.631512 -0.25805,-5.631512 H 212.4692 178.90908 V 29.672728 47.127274 H 134.83636 90.763631 Z m 166.383459,-13.24126 7.98346,-4.690341 -8.27171,-4.7836903 c -4.54945,-2.6310297 -8.63291,-4.9145996 -9.07437,-5.0745995 -0.45922,-0.1664329 -0.80267,4.0745946 -0.80267,9.9115538 0,7.813498 0.25544,10.100015 1.09091,9.76494 0.6,-0.240637 4.68347,-2.548176 9.07438,-5.127863 z"
       id="path14"
       inkscape:connector-curvature="0" />
  </g>
</svg>
