<?xml version="1.0" encoding="UTF-8" standalone="no"?>
<!-- Created with Inkscape (http://www.inkscape.org/) -->

<svg
   xmlns:dc="http://purl.org/dc/elements/1.1/"
   xmlns:cc="http://creativecommons.org/ns#"
   xmlns:rdf="http://www.w3.org/1999/02/22-rdf-syntax-ns#"
   xmlns:svg="http://www.w3.org/2000/svg"
   xmlns="http://www.w3.org/2000/svg"
   xmlns:sodipodi="http://sodipodi.sourceforge.net/DTD/sodipodi-0.dtd"
   xmlns:inkscape="http://www.inkscape.org/namespaces/inkscape"
   version="1.1"
   id="svg2"
   width="260.07272"
   height="45.381817"
   viewBox="0 0 260.07272 45.381817"
   sodipodi:docname="uml-has_attached.svg"
   inkscape:version="0.92.2 (5c3e80d, 2017-08-06)">
  <metadata
     id="metadata8">
    <rdf:RDF>
      <cc:Work
         rdf:about="">
        <dc:format>image/svg+xml</dc:format>
        <dc:type
           rdf:resource="http://purl.org/dc/dcmitype/StillImage" />
        <dc:title></dc:title>
      </cc:Work>
    </rdf:RDF>
  </metadata>
  <defs
     id="defs6" />
  <sodipodi:namedview
     pagecolor="#ffffff"
     bordercolor="#666666"
     borderopacity="1"
     objecttolerance="10"
     gridtolerance="10"
     guidetolerance="10"
     inkscape:pageopacity="0"
     inkscape:pageshadow="2"
     inkscape:window-width="640"
     inkscape:window-height="480"
     id="namedview4"
     showgrid="false"
     inkscape:zoom="1.5418764"
     inkscape:cx="130.03636"
     inkscape:cy="22.690908"
     inkscape:window-x="0"
     inkscape:window-y="0"
     inkscape:window-maximized="0"
     inkscape:current-layer="svg2" />
  <g
     id="g12">
    <path
       style="fill:#d0d0d0;fill-opacity:1;stroke-width:0.87272727"
       d="m 88.363634,38.671133 c 0.84,-0.219515 2.214545,-0.219515 3.054545,0 0.84,0.219515 0.152728,0.399118 -1.527272,0.399118 -1.68,0 -2.367273,-0.179603 -1.527273,-0.399118 z m 8.727272,0 c 0.84,-0.219515 2.214546,-0.219515 3.054544,0 0.84,0.219515 0.15273,0.399118 -1.527271,0.399118 -1.68,0 -2.367273,-0.179603 -1.527273,-0.399118 z m 8.727274,0 c 0.84,-0.219515 2.21454,-0.219515 3.05454,0 0.84,0.219515 0.15273,0.399118 -1.52727,0.399118 -1.68,0 -2.36727,-0.179603 -1.52727,-0.399118 z m 8.72727,0 c 0.84,-0.219515 2.21455,-0.219515 3.05455,0 0.84,0.219515 0.15272,0.399118 -1.52728,0.399118 -1.68,0 -2.36727,-0.179603 -1.52727,-0.399118 z m 8.72727,0 c 0.84,-0.219515 2.21455,-0.219515 3.05455,0 0.84,0.219515 0.15273,0.399118 -1.52727,0.399118 -1.68,0 -2.36728,-0.179603 -1.52728,-0.399118 z m 8.72728,0 c 0.84,-0.219515 2.21454,-0.219515 3.05454,0 0.84,0.219515 0.15273,0.399118 -1.52727,0.399118 -1.68,0 -2.36727,-0.179603 -1.52727,-0.399118 z m 8.72727,0 c 0.84,-0.219515 2.21454,-0.219515 3.05454,0 0.84,0.219515 0.15273,0.399118 -1.52727,0.399118 -1.68,0 -2.36727,-0.179603 -1.52727,-0.399118 z m 8.72727,0 c 0.84,-0.219515 2.21455,-0.219515 3.05455,0 0.84,0.219515 0.15272,0.399118 -1.52728,0.399118 -1.68,0 -2.36727,-0.179603 -1.52727,-0.399118 z m 8.72727,0 c 0.84,-0.219515 2.21455,-0.219515 3.05455,0 0.84,0.219515 0.15273,0.399118 -1.52727,0.399118 -1.68,0 -2.36728,-0.179603 -1.52728,-0.399118 z m 8.72728,0 c 0.84,-0.219515 2.21454,-0.219515 3.05454,0 0.84,0.219515 0.15273,0.399118 -1.52727,0.399118 -1.68,0 -2.36727,-0.179603 -1.52727,-0.399118 z m 7.83883,-2.889316 c 0,-1.68 0.17961,-2.367272 0.39913,-1.527272 0.21951,0.84 0.21951,2.214545 0,3.054545 -0.21952,0.84 -0.39913,0.152727 -0.39913,-1.527273 z M 87.475198,32.290908 c 0,-1.68 0.179607,-2.367272 0.399124,-1.527272 0.219508,0.84 0.219508,2.214545 0,3.054545 -0.219517,0.84 -0.399124,0.152727 -0.399124,-1.527273 z m 87.272722,-5.236363 c 0,-1.68 0.17961,-2.367273 0.39913,-1.527273 0.21951,0.84 0.21951,2.214545 0,3.054545 -0.21952,0.84 -0.39913,0.152728 -0.39913,-1.527272 z M 87.475198,23.563636 c 0,-1.68 0.179607,-2.367273 0.399124,-1.527273 0.219508,0.84 0.219508,2.214545 0,3.054545 -0.219517,0.84 -0.399124,0.152728 -0.399124,-1.527272 z m 87.272722,-5.236364 c 0,-1.68 0.17961,-2.367272 0.39913,-1.527272 0.21951,0.84 0.21951,2.214545 0,3.054545 -0.21952,0.84 -0.39913,0.152727 -0.39913,-1.527273 z M 87.475198,14.836363 c 0,-1.68 0.179607,-2.367272 0.399124,-1.527272 0.219508,0.84 0.219508,2.214545 0,3.054545 -0.219517,0.84 -0.399124,0.152727 -0.399124,-1.527273 z M 174.74792,9.5999998 c 0,-1.68 0.17961,-2.3672727 0.39913,-1.5272727 0.21951,0.8399999 0.21951,2.2145449 0,3.0545449 -0.21952,0.84 -0.39913,0.152728 -0.39913,-1.5272722 z M 87.475198,6.1090907 c 0,-1.6799999 0.179607,-2.3672726 0.399124,-1.5272726 0.219508,0.8399999 0.219508,2.2145454 0,3.0545453 -0.219517,0.84 -0.399124,0.1527273 -0.399124,-1.5272727 z M 1.0909091,3.7620431 c 0.8399999,-0.219515 2.2145454,-0.219515 3.0545453,0 0.84,0.2195149 0.1527273,0.3991181 -1.5272727,0.3991181 -1.67999991,0 -2.36727262,-0.1796032 -1.5272726,-0.3991181 z m 8.7272724,0 c 0.8400005,-0.219515 2.2145455,-0.219515 3.0545455,0 0.84,0.2195149 0.152727,0.3991181 -1.527273,0.3991181 -1.6799997,0 -2.3672724,-0.1796032 -1.5272725,-0.3991181 z m 8.7272725,0 c 0.84,-0.219515 2.214545,-0.219515 3.054545,0 0.84,0.2195149 0.152728,0.3991181 -1.527272,0.3991181 -1.68,0 -2.367273,-0.1796032 -1.527273,-0.3991181 z m 8.727273,0 c 0.839999,-0.219515 2.214545,-0.219515 3.054545,0 0.84,0.2195149 0.152727,0.3991181 -1.527273,0.3991181 -1.68,0 -2.367272,-0.1796032 -1.527272,-0.3991181 z m 8.727272,0 c 0.84,-0.219515 2.214545,-0.219515 3.054545,0 0.84,0.2195149 0.152728,0.3991181 -1.527272,0.3991181 -1.68,0 -2.367273,-0.1796032 -1.527273,-0.3991181 z m 8.727272,0 c 0.84,-0.219515 2.214546,-0.219515 3.054546,0 0.84,0.2195149 0.152727,0.3991181 -1.527273,0.3991181 -1.68,0 -2.367272,-0.1796032 -1.527273,-0.3991181 z m 8.727273,0 c 0.84,-0.219515 2.214545,-0.219515 3.054545,0 0.84,0.2195149 0.152728,0.3991181 -1.527272,0.3991181 -1.68,0 -2.367273,-0.1796032 -1.527273,-0.3991181 z m 8.727272,0 c 0.84,-0.219515 2.214546,-0.219515 3.054546,0 0.84,0.2195149 0.152727,0.3991181 -1.527273,0.3991181 -1.68,0 -2.367273,-0.1796032 -1.527273,-0.3991181 z m 8.727273,0 c 0.84,-0.219515 2.214545,-0.219515 3.054545,0 0.84,0.2195149 0.152728,0.3991181 -1.527272,0.3991181 -1.68,0 -2.367273,-0.1796032 -1.527273,-0.3991181 z m 8.727272,0 c 0.84,-0.219515 2.214546,-0.219515 3.054546,0 0.84,0.2195149 0.152727,0.3991181 -1.527273,0.3991181 -1.68,0 -2.367273,-0.1796032 -1.527273,-0.3991181 z m 95.999999,0 c 0.84,-0.219515 2.21454,-0.219515 3.05454,0 0.84,0.2195149 0.15273,0.3991181 -1.52727,0.3991181 -1.68,0 -2.36727,-0.1796032 -1.52727,-0.3991181 z m 8.72727,0 c 0.84,-0.219515 2.21455,-0.219515 3.05455,0 0.84,0.2195149 0.15272,0.3991181 -1.52728,0.3991181 -1.68,0 -2.36727,-0.1796032 -1.52727,-0.3991181 z m 8.72727,0 c 0.84,-0.219515 2.21455,-0.219515 3.05455,0 0.84,0.2195149 0.15273,0.3991181 -1.52727,0.3991181 -1.68,0 -2.36728,-0.1796032 -1.52728,-0.3991181 z m 8.72728,0 c 0.84,-0.219515 2.21454,-0.219515 3.05454,0 0.84,0.2195149 0.15273,0.3991181 -1.52727,0.3991181 -1.68,0 -2.36727,-0.1796032 -1.52727,-0.3991181 z m 8.72727,0 c 0.84,-0.219515 2.21454,-0.219515 3.05454,0 0.84,0.2195149 0.15273,0.3991181 -1.52727,0.3991181 -1.68,0 -2.36727,-0.1796032 -1.52727,-0.3991181 z m 8.72727,0 c 0.84,-0.219515 2.21455,-0.219515 3.05455,0 0.84,0.2195149 0.15272,0.3991181 -1.52728,0.3991181 -1.68,0 -2.36727,-0.1796032 -1.52727,-0.3991181 z m 8.72727,0 c 0.84,-0.219515 2.21455,-0.219515 3.05455,0 0.84,0.2195149 0.15273,0.3991181 -1.52727,0.3991181 -1.68,0 -2.36728,-0.1796032 -1.52728,-0.3991181 z m 8.72728,0 c 0.84,-0.219515 2.21454,-0.219515 3.05454,0 0.84,0.2195149 0.15273,0.3991181 -1.52727,0.3991181 -1.68,0 -2.36727,-0.1796032 -1.52727,-0.3991181 z m 8.72727,0 c 0.84,-0.219515 2.21454,-0.219515 3.05454,0 0.84,0.2195149 0.15273,0.3991181 -1.52727,0.3991181 -1.68,0 -2.36727,-0.1796032 -1.52727,-0.3991181 z m 8.72727,0 c 0.84,-0.219515 2.21455,-0.219515 3.05455,0 0.84,0.2195149 0.15272,0.3991181 -1.52728,0.3991181 -1.68,0 -2.36727,-0.1796032 -1.52727,-0.3991181 z"
       id="path28"
       inkscape:connector-curvature="0" />
    <path
       style="fill:#b9b9b9;fill-opacity:1;stroke-width:0.87272727"
       d="m 88.363634,38.671133 c 0.84,-0.219515 2.214545,-0.219515 3.054545,0 0.84,0.219515 0.152728,0.399118 -1.527272,0.399118 -1.68,0 -2.367273,-0.179603 -1.527273,-0.399118 z m 8.727272,0 c 0.84,-0.219515 2.214546,-0.219515 3.054544,0 0.84,0.219515 0.15273,0.399118 -1.527271,0.399118 -1.68,0 -2.367273,-0.179603 -1.527273,-0.399118 z m 8.727274,0 c 0.84,-0.219515 2.21454,-0.219515 3.05454,0 0.84,0.219515 0.15273,0.399118 -1.52727,0.399118 -1.68,0 -2.36727,-0.179603 -1.52727,-0.399118 z m 8.72727,0 c 0.84,-0.219515 2.21455,-0.219515 3.05455,0 0.84,0.219515 0.15272,0.399118 -1.52728,0.399118 -1.68,0 -2.36727,-0.179603 -1.52727,-0.399118 z m 8.72727,0 c 0.84,-0.219515 2.21455,-0.219515 3.05455,0 0.84,0.219515 0.15273,0.399118 -1.52727,0.399118 -1.68,0 -2.36728,-0.179603 -1.52728,-0.399118 z m 8.72728,0 c 0.84,-0.219515 2.21454,-0.219515 3.05454,0 0.84,0.219515 0.15273,0.399118 -1.52727,0.399118 -1.68,0 -2.36727,-0.179603 -1.52727,-0.399118 z m 8.72727,0 c 0.84,-0.219515 2.21454,-0.219515 3.05454,0 0.84,0.219515 0.15273,0.399118 -1.52727,0.399118 -1.68,0 -2.36727,-0.179603 -1.52727,-0.399118 z m 8.72727,0 c 0.84,-0.219515 2.21455,-0.219515 3.05455,0 0.84,0.219515 0.15272,0.399118 -1.52728,0.399118 -1.68,0 -2.36727,-0.179603 -1.52727,-0.399118 z m 8.72727,0 c 0.84,-0.219515 2.21455,-0.219515 3.05455,0 0.84,0.219515 0.15273,0.399118 -1.52727,0.399118 -1.68,0 -2.36728,-0.179603 -1.52728,-0.399118 z m 8.72728,0 c 0.84,-0.219515 2.21454,-0.219515 3.05454,0 0.84,0.219515 0.15273,0.399118 -1.52727,0.399118 -1.68,0 -2.36727,-0.179603 -1.52727,-0.399118 z m 7.83883,-2.889316 c 0,-1.68 0.17961,-2.367272 0.39913,-1.527272 0.21951,0.84 0.21951,2.214545 0,3.054545 -0.21952,0.84 -0.39913,0.152727 -0.39913,-1.527273 z M 87.475198,32.290908 c 0,-1.68 0.179607,-2.367272 0.399124,-1.527272 0.219508,0.84 0.219508,2.214545 0,3.054545 -0.219517,0.84 -0.399124,0.152727 -0.399124,-1.527273 z m 87.272722,-5.236363 c 0,-1.68 0.17961,-2.367273 0.39913,-1.527273 0.21951,0.84 0.21951,2.214545 0,3.054545 -0.21952,0.84 -0.39913,0.152728 -0.39913,-1.527272 z M 87.475198,23.563636 c 0,-1.68 0.179607,-2.367273 0.399124,-1.527273 0.219508,0.84 0.219508,2.214545 0,3.054545 -0.219517,0.84 -0.399124,0.152728 -0.399124,-1.527272 z m 87.272722,-5.236364 c 0,-1.68 0.17961,-2.367272 0.39913,-1.527272 0.21951,0.84 0.21951,2.214545 0,3.054545 -0.21952,0.84 -0.39913,0.152727 -0.39913,-1.527273 z M 87.475198,14.836363 c 0,-1.68 0.179607,-2.367272 0.399124,-1.527272 0.219508,0.84 0.219508,2.214545 0,3.054545 -0.219517,0.84 -0.399124,0.152727 -0.399124,-1.527273 z M 174.74792,9.5999998 c 0,-1.68 0.17961,-2.3672727 0.39913,-1.5272727 0.21951,0.8399999 0.21951,2.2145449 0,3.0545449 -0.21952,0.84 -0.39913,0.152728 -0.39913,-1.5272722 z M 87.475198,6.1090907 c 0,-1.6799999 0.179607,-2.3672726 0.399124,-1.5272726 0.219508,0.8399999 0.219508,2.2145454 0,3.0545453 -0.219517,0.84 -0.399124,0.1527273 -0.399124,-1.5272727 z M 1.0909091,3.7620431 c 0.8399999,-0.219515 2.2145454,-0.219515 3.0545453,0 0.84,0.2195149 0.1527273,0.3991181 -1.5272727,0.3991181 -1.67999991,0 -2.36727262,-0.1796032 -1.5272726,-0.3991181 z m 8.7272724,0 c 0.8400005,-0.219515 2.2145455,-0.219515 3.0545455,0 0.84,0.2195149 0.152727,0.3991181 -1.527273,0.3991181 -1.6799997,0 -2.3672724,-0.1796032 -1.5272725,-0.3991181 z m 8.7272725,0 c 0.84,-0.219515 2.214545,-0.219515 3.054545,0 0.84,0.2195149 0.152728,0.3991181 -1.527272,0.3991181 -1.68,0 -2.367273,-0.1796032 -1.527273,-0.3991181 z m 8.727273,0 c 0.839999,-0.219515 2.214545,-0.219515 3.054545,0 0.84,0.2195149 0.152727,0.3991181 -1.527273,0.3991181 -1.68,0 -2.367272,-0.1796032 -1.527272,-0.3991181 z m 8.727272,0 c 0.84,-0.219515 2.214545,-0.219515 3.054545,0 0.84,0.2195149 0.152728,0.3991181 -1.527272,0.3991181 -1.68,0 -2.367273,-0.1796032 -1.527273,-0.3991181 z m 8.727272,0 c 0.84,-0.219515 2.214546,-0.219515 3.054546,0 0.84,0.2195149 0.152727,0.3991181 -1.527273,0.3991181 -1.68,0 -2.367272,-0.1796032 -1.527273,-0.3991181 z m 8.727273,0 c 0.84,-0.219515 2.214545,-0.219515 3.054545,0 0.84,0.2195149 0.152728,0.3991181 -1.527272,0.3991181 -1.68,0 -2.367273,-0.1796032 -1.527273,-0.3991181 z m 8.727272,0 c 0.84,-0.219515 2.214546,-0.219515 3.054546,0 0.84,0.2195149 0.152727,0.3991181 -1.527273,0.3991181 -1.68,0 -2.367273,-0.1796032 -1.527273,-0.3991181 z m 8.727273,0 c 0.84,-0.219515 2.214545,-0.219515 3.054545,0 0.84,0.2195149 0.152728,0.3991181 -1.527272,0.3991181 -1.68,0 -2.367273,-0.1796032 -1.527273,-0.3991181 z m 8.727272,0 c 0.84,-0.219515 2.214546,-0.219515 3.054546,0 0.84,0.2195149 0.152727,0.3991181 -1.527273,0.3991181 -1.68,0 -2.367273,-0.1796032 -1.527273,-0.3991181 z m 95.999999,0 c 0.84,-0.219515 2.21454,-0.219515 3.05454,0 0.84,0.2195149 0.15273,0.3991181 -1.52727,0.3991181 -1.68,0 -2.36727,-0.1796032 -1.52727,-0.3991181 z m 8.72727,0 c 0.84,-0.219515 2.21455,-0.219515 3.05455,0 0.84,0.2195149 0.15272,0.3991181 -1.52728,0.3991181 -1.68,0 -2.36727,-0.1796032 -1.52727,-0.3991181 z m 8.72727,0 c 0.84,-0.219515 2.21455,-0.219515 3.05455,0 0.84,0.2195149 0.15273,0.3991181 -1.52727,0.3991181 -1.68,0 -2.36728,-0.1796032 -1.52728,-0.3991181 z m 8.72728,0 c 0.84,-0.219515 2.21454,-0.219515 3.05454,0 0.84,0.2195149 0.15273,0.3991181 -1.52727,0.3991181 -1.68,0 -2.36727,-0.1796032 -1.52727,-0.3991181 z m 8.72727,0 c 0.84,-0.219515 2.21454,-0.219515 3.05454,0 0.84,0.2195149 0.15273,0.3991181 -1.52727,0.3991181 -1.68,0 -2.36727,-0.1796032 -1.52727,-0.3991181 z m 8.72727,0 c 0.84,-0.219515 2.21455,-0.219515 3.05455,0 0.84,0.2195149 0.15272,0.3991181 -1.52728,0.3991181 -1.68,0 -2.36727,-0.1796032 -1.52727,-0.3991181 z m 8.72727,0 c 0.84,-0.219515 2.21455,-0.219515 3.05455,0 0.84,0.2195149 0.15273,0.3991181 -1.52727,0.3991181 -1.68,0 -2.36728,-0.1796032 -1.52728,-0.3991181 z m 8.72728,0 c 0.84,-0.219515 2.21454,-0.219515 3.05454,0 0.84,0.2195149 0.15273,0.3991181 -1.52727,0.3991181 -1.68,0 -2.36727,-0.1796032 -1.52727,-0.3991181 z m 8.72727,0 c 0.84,-0.219515 2.21454,-0.219515 3.05454,0 0.84,0.2195149 0.15273,0.3991181 -1.52727,0.3991181 -1.68,0 -2.36727,-0.1796032 -1.52727,-0.3991181 z m 8.72727,0 c 0.84,-0.219515 2.21455,-0.219515 3.05455,0 0.84,0.2195149 0.15272,0.3991181 -1.52728,0.3991181 -1.68,0 -2.36727,-0.1796032 -1.52727,-0.3991181 z"
       id="path26"
       inkscape:connector-curvature="0" />
    <path
       style="fill:#a3a3a3;fill-opacity:1;stroke-width:0.87272727"
       d="m 88.363634,38.671133 c 0.84,-0.219515 2.214545,-0.219515 3.054545,0 0.84,0.219515 0.152728,0.399118 -1.527272,0.399118 -1.68,0 -2.367273,-0.179603 -1.527273,-0.399118 z m 8.727272,0 c 0.84,-0.219515 2.214546,-0.219515 3.054544,0 0.84,0.219515 0.15273,0.399118 -1.527271,0.399118 -1.68,0 -2.367273,-0.179603 -1.527273,-0.399118 z m 8.727274,0 c 0.84,-0.219515 2.21454,-0.219515 3.05454,0 0.84,0.219515 0.15273,0.399118 -1.52727,0.399118 -1.68,0 -2.36727,-0.179603 -1.52727,-0.399118 z m 8.72727,0 c 0.84,-0.219515 2.21455,-0.219515 3.05455,0 0.84,0.219515 0.15272,0.399118 -1.52728,0.399118 -1.68,0 -2.36727,-0.179603 -1.52727,-0.399118 z m 8.72727,0 c 0.84,-0.219515 2.21455,-0.219515 3.05455,0 0.84,0.219515 0.15273,0.399118 -1.52727,0.399118 -1.68,0 -2.36728,-0.179603 -1.52728,-0.399118 z m 8.72728,0 c 0.84,-0.219515 2.21454,-0.219515 3.05454,0 0.84,0.219515 0.15273,0.399118 -1.52727,0.399118 -1.68,0 -2.36727,-0.179603 -1.52727,-0.399118 z m 8.72727,0 c 0.84,-0.219515 2.21454,-0.219515 3.05454,0 0.84,0.219515 0.15273,0.399118 -1.52727,0.399118 -1.68,0 -2.36727,-0.179603 -1.52727,-0.399118 z m 8.72727,0 c 0.84,-0.219515 2.21455,-0.219515 3.05455,0 0.84,0.219515 0.15272,0.399118 -1.52728,0.399118 -1.68,0 -2.36727,-0.179603 -1.52727,-0.399118 z m 8.72727,0 c 0.84,-0.219515 2.21455,-0.219515 3.05455,0 0.84,0.219515 0.15273,0.399118 -1.52727,0.399118 -1.68,0 -2.36728,-0.179603 -1.52728,-0.399118 z m 8.72728,0 c 0.84,-0.219515 2.21454,-0.219515 3.05454,0 0.84,0.219515 0.15273,0.399118 -1.52727,0.399118 -1.68,0 -2.36727,-0.179603 -1.52727,-0.399118 z m 7.83883,-2.889316 c 0,-1.68 0.17961,-2.367272 0.39913,-1.527272 0.21951,0.84 0.21951,2.214545 0,3.054545 -0.21952,0.84 -0.39913,0.152727 -0.39913,-1.527273 z M 87.475198,32.290908 c 0,-1.68 0.179607,-2.367272 0.399124,-1.527272 0.219508,0.84 0.219508,2.214545 0,3.054545 -0.219517,0.84 -0.399124,0.152727 -0.399124,-1.527273 z m 87.272722,-5.236363 c 0,-1.68 0.17961,-2.367273 0.39913,-1.527273 0.21951,0.84 0.21951,2.214545 0,3.054545 -0.21952,0.84 -0.39913,0.152728 -0.39913,-1.527272 z M 87.475198,23.563636 c 0,-1.68 0.179607,-2.367273 0.399124,-1.527273 0.219508,0.84 0.219508,2.214545 0,3.054545 -0.219517,0.84 -0.399124,0.152728 -0.399124,-1.527272 z m 87.272722,-5.236364 c 0,-1.68 0.17961,-2.367272 0.39913,-1.527272 0.21951,0.84 0.21951,2.214545 0,3.054545 -0.21952,0.84 -0.39913,0.152727 -0.39913,-1.527273 z M 87.475198,14.836363 c 0,-1.68 0.179607,-2.367272 0.399124,-1.527272 0.219508,0.84 0.219508,2.214545 0,3.054545 -0.219517,0.84 -0.399124,0.152727 -0.399124,-1.527273 z M 174.74792,9.5999998 c 0,-1.68 0.17961,-2.3672727 0.39913,-1.5272727 0.21951,0.8399999 0.21951,2.2145449 0,3.0545449 -0.21952,0.84 -0.39913,0.152728 -0.39913,-1.5272722 z M 87.475198,6.1090907 c 0,-1.6799999 0.179607,-2.3672726 0.399124,-1.5272726 0.219508,0.8399999 0.219508,2.2145454 0,3.0545453 -0.219517,0.84 -0.399124,0.1527273 -0.399124,-1.5272727 z M 1.0909091,3.7620431 c 0.8399999,-0.219515 2.2145454,-0.219515 3.0545453,0 0.84,0.2195149 0.1527273,0.3991181 -1.5272727,0.3991181 -1.67999991,0 -2.36727262,-0.1796032 -1.5272726,-0.3991181 z m 8.7272724,0 c 0.8400005,-0.219515 2.2145455,-0.219515 3.0545455,0 0.84,0.2195149 0.152727,0.3991181 -1.527273,0.3991181 -1.6799997,0 -2.3672724,-0.1796032 -1.5272725,-0.3991181 z m 8.7272725,0 c 0.84,-0.219515 2.214545,-0.219515 3.054545,0 0.84,0.2195149 0.152728,0.3991181 -1.527272,0.3991181 -1.68,0 -2.367273,-0.1796032 -1.527273,-0.3991181 z m 8.727273,0 c 0.839999,-0.219515 2.214545,-0.219515 3.054545,0 0.84,0.2195149 0.152727,0.3991181 -1.527273,0.3991181 -1.68,0 -2.367272,-0.1796032 -1.527272,-0.3991181 z m 8.727272,0 c 0.84,-0.219515 2.214545,-0.219515 3.054545,0 0.84,0.2195149 0.152728,0.3991181 -1.527272,0.3991181 -1.68,0 -2.367273,-0.1796032 -1.527273,-0.3991181 z m 8.727272,0 c 0.84,-0.219515 2.214546,-0.219515 3.054546,0 0.84,0.2195149 0.152727,0.3991181 -1.527273,0.3991181 -1.68,0 -2.367272,-0.1796032 -1.527273,-0.3991181 z m 8.727273,0 c 0.84,-0.219515 2.214545,-0.219515 3.054545,0 0.84,0.2195149 0.152728,0.3991181 -1.527272,0.3991181 -1.68,0 -2.367273,-0.1796032 -1.527273,-0.3991181 z m 8.727272,0 c 0.84,-0.219515 2.214546,-0.219515 3.054546,0 0.84,0.2195149 0.152727,0.3991181 -1.527273,0.3991181 -1.68,0 -2.367273,-0.1796032 -1.527273,-0.3991181 z m 8.727273,0 c 0.84,-0.219515 2.214545,-0.219515 3.054545,0 0.84,0.2195149 0.152728,0.3991181 -1.527272,0.3991181 -1.68,0 -2.367273,-0.1796032 -1.527273,-0.3991181 z m 8.727272,0 c 0.84,-0.219515 2.214546,-0.219515 3.054546,0 0.84,0.2195149 0.152727,0.3991181 -1.527273,0.3991181 -1.68,0 -2.367273,-0.1796032 -1.527273,-0.3991181 z m 95.999999,0 c 0.84,-0.219515 2.21454,-0.219515 3.05454,0 0.84,0.2195149 0.15273,0.3991181 -1.52727,0.3991181 -1.68,0 -2.36727,-0.1796032 -1.52727,-0.3991181 z m 8.72727,0 c 0.84,-0.219515 2.21455,-0.219515 3.05455,0 0.84,0.2195149 0.15272,0.3991181 -1.52728,0.3991181 -1.68,0 -2.36727,-0.1796032 -1.52727,-0.3991181 z m 8.72727,0 c 0.84,-0.219515 2.21455,-0.219515 3.05455,0 0.84,0.2195149 0.15273,0.3991181 -1.52727,0.3991181 -1.68,0 -2.36728,-0.1796032 -1.52728,-0.3991181 z m 8.72728,0 c 0.84,-0.219515 2.21454,-0.219515 3.05454,0 0.84,0.2195149 0.15273,0.3991181 -1.52727,0.3991181 -1.68,0 -2.36727,-0.1796032 -1.52727,-0.3991181 z m 8.72727,0 c 0.84,-0.219515 2.21454,-0.219515 3.05454,0 0.84,0.2195149 0.15273,0.3991181 -1.52727,0.3991181 -1.68,0 -2.36727,-0.1796032 -1.52727,-0.3991181 z m 8.72727,0 c 0.84,-0.219515 2.21455,-0.219515 3.05455,0 0.84,0.2195149 0.15272,0.3991181 -1.52728,0.3991181 -1.68,0 -2.36727,-0.1796032 -1.52727,-0.3991181 z m 8.72727,0 c 0.84,-0.219515 2.21455,-0.219515 3.05455,0 0.84,0.2195149 0.15273,0.3991181 -1.52727,0.3991181 -1.68,0 -2.36728,-0.1796032 -1.52728,-0.3991181 z m 8.72728,0 c 0.84,-0.219515 2.21454,-0.219515 3.05454,0 0.84,0.2195149 0.15273,0.3991181 -1.52727,0.3991181 -1.68,0 -2.36727,-0.1796032 -1.52727,-0.3991181 z m 8.72727,0 c 0.84,-0.219515 2.21454,-0.219515 3.05454,0 0.84,0.2195149 0.15273,0.3991181 -1.52727,0.3991181 -1.68,0 -2.36727,-0.1796032 -1.52727,-0.3991181 z m 8.72727,0 c 0.84,-0.219515 2.21455,-0.219515 3.05455,0 0.84,0.2195149 0.15272,0.3991181 -1.52728,0.3991181 -1.68,0 -2.36727,-0.1796032 -1.52727,-0.3991181 z"
       id="path24"
       inkscape:connector-curvature="0" />
    <path
       style="fill:#8c8c8c;fill-opacity:1;stroke-width:0.87272727"
       d="m 88.363634,38.671133 c 0.84,-0.219515 2.214545,-0.219515 3.054545,0 0.84,0.219515 0.152728,0.399118 -1.527272,0.399118 -1.68,0 -2.367273,-0.179603 -1.527273,-0.399118 z m 8.727272,0 c 0.84,-0.219515 2.214546,-0.219515 3.054544,0 0.84,0.219515 0.15273,0.399118 -1.527271,0.399118 -1.68,0 -2.367273,-0.179603 -1.527273,-0.399118 z m 8.727274,0 c 0.84,-0.219515 2.21454,-0.219515 3.05454,0 0.84,0.219515 0.15273,0.399118 -1.52727,0.399118 -1.68,0 -2.36727,-0.179603 -1.52727,-0.399118 z m 8.72727,0 c 0.84,-0.219515 2.21455,-0.219515 3.05455,0 0.84,0.219515 0.15272,0.399118 -1.52728,0.399118 -1.68,0 -2.36727,-0.179603 -1.52727,-0.399118 z m 8.72727,0 c 0.84,-0.219515 2.21455,-0.219515 3.05455,0 0.84,0.219515 0.15273,0.399118 -1.52727,0.399118 -1.68,0 -2.36728,-0.179603 -1.52728,-0.399118 z m 8.72728,0 c 0.84,-0.219515 2.21454,-0.219515 3.05454,0 0.84,0.219515 0.15273,0.399118 -1.52727,0.399118 -1.68,0 -2.36727,-0.179603 -1.52727,-0.399118 z m 8.72727,0 c 0.84,-0.219515 2.21454,-0.219515 3.05454,0 0.84,0.219515 0.15273,0.399118 -1.52727,0.399118 -1.68,0 -2.36727,-0.179603 -1.52727,-0.399118 z m 8.72727,0 c 0.84,-0.219515 2.21455,-0.219515 3.05455,0 0.84,0.219515 0.15272,0.399118 -1.52728,0.399118 -1.68,0 -2.36727,-0.179603 -1.52727,-0.399118 z m 8.72727,0 c 0.84,-0.219515 2.21455,-0.219515 3.05455,0 0.84,0.219515 0.15273,0.399118 -1.52727,0.399118 -1.68,0 -2.36728,-0.179603 -1.52728,-0.399118 z m 8.72728,0 c 0.84,-0.219515 2.21454,-0.219515 3.05454,0 0.84,0.219515 0.15273,0.399118 -1.52727,0.399118 -1.68,0 -2.36727,-0.179603 -1.52727,-0.399118 z m 7.83883,-2.889316 c 0,-1.68 0.17961,-2.367272 0.39913,-1.527272 0.21951,0.84 0.21951,2.214545 0,3.054545 -0.21952,0.84 -0.39913,0.152727 -0.39913,-1.527273 z M 87.475198,32.290908 c 0,-1.68 0.179607,-2.367272 0.399124,-1.527272 0.219508,0.84 0.219508,2.214545 0,3.054545 -0.219517,0.84 -0.399124,0.152727 -0.399124,-1.527273 z m 87.272722,-5.236363 c 0,-1.68 0.17961,-2.367273 0.39913,-1.527273 0.21951,0.84 0.21951,2.214545 0,3.054545 -0.21952,0.84 -0.39913,0.152728 -0.39913,-1.527272 z M 87.475198,23.563636 c 0,-1.68 0.179607,-2.367273 0.399124,-1.527273 0.219508,0.84 0.219508,2.214545 0,3.054545 -0.219517,0.84 -0.399124,0.152728 -0.399124,-1.527272 z m 87.272722,-5.236364 c 0,-1.68 0.17961,-2.367272 0.39913,-1.527272 0.21951,0.84 0.21951,2.214545 0,3.054545 -0.21952,0.84 -0.39913,0.152727 -0.39913,-1.527273 z M 87.475198,14.836363 c 0,-1.68 0.179607,-2.367272 0.399124,-1.527272 0.219508,0.84 0.219508,2.214545 0,3.054545 -0.219517,0.84 -0.399124,0.152727 -0.399124,-1.527273 z M 174.74792,9.5999998 c 0,-1.68 0.17961,-2.3672727 0.39913,-1.5272727 0.21951,0.8399999 0.21951,2.2145449 0,3.0545449 -0.21952,0.84 -0.39913,0.152728 -0.39913,-1.5272722 z M 87.475198,6.1090907 c 0,-1.6799999 0.179607,-2.3672726 0.399124,-1.5272726 0.219508,0.8399999 0.219508,2.2145454 0,3.0545453 -0.219517,0.84 -0.399124,0.1527273 -0.399124,-1.5272727 z M 1.0909091,3.7620431 c 0.8399999,-0.219515 2.2145454,-0.219515 3.0545453,0 0.84,0.2195149 0.1527273,0.3991181 -1.5272727,0.3991181 -1.67999991,0 -2.36727262,-0.1796032 -1.5272726,-0.3991181 z m 8.7272724,0 c 0.8400005,-0.219515 2.2145455,-0.219515 3.0545455,0 0.84,0.2195149 0.152727,0.3991181 -1.527273,0.3991181 -1.6799997,0 -2.3672724,-0.1796032 -1.5272725,-0.3991181 z m 8.7272725,0 c 0.84,-0.219515 2.214545,-0.219515 3.054545,0 0.84,0.2195149 0.152728,0.3991181 -1.527272,0.3991181 -1.68,0 -2.367273,-0.1796032 -1.527273,-0.3991181 z m 8.727273,0 c 0.839999,-0.219515 2.214545,-0.219515 3.054545,0 0.84,0.2195149 0.152727,0.3991181 -1.527273,0.3991181 -1.68,0 -2.367272,-0.1796032 -1.527272,-0.3991181 z m 8.727272,0 c 0.84,-0.219515 2.214545,-0.219515 3.054545,0 0.84,0.2195149 0.152728,0.3991181 -1.527272,0.3991181 -1.68,0 -2.367273,-0.1796032 -1.527273,-0.3991181 z m 8.727272,0 c 0.84,-0.219515 2.214546,-0.219515 3.054546,0 0.84,0.2195149 0.152727,0.3991181 -1.527273,0.3991181 -1.68,0 -2.367272,-0.1796032 -1.527273,-0.3991181 z m 8.727273,0 c 0.84,-0.219515 2.214545,-0.219515 3.054545,0 0.84,0.2195149 0.152728,0.3991181 -1.527272,0.3991181 -1.68,0 -2.367273,-0.1796032 -1.527273,-0.3991181 z m 8.727272,0 c 0.84,-0.219515 2.214546,-0.219515 3.054546,0 0.84,0.2195149 0.152727,0.3991181 -1.527273,0.3991181 -1.68,0 -2.367273,-0.1796032 -1.527273,-0.3991181 z m 8.727273,0 c 0.84,-0.219515 2.214545,-0.219515 3.054545,0 0.84,0.2195149 0.152728,0.3991181 -1.527272,0.3991181 -1.68,0 -2.367273,-0.1796032 -1.527273,-0.3991181 z m 8.727272,0 c 0.84,-0.219515 2.214546,-0.219515 3.054546,0 0.84,0.2195149 0.152727,0.3991181 -1.527273,0.3991181 -1.68,0 -2.367273,-0.1796032 -1.527273,-0.3991181 z m 95.999999,0 c 0.84,-0.219515 2.21454,-0.219515 3.05454,0 0.84,0.2195149 0.15273,0.3991181 -1.52727,0.3991181 -1.68,0 -2.36727,-0.1796032 -1.52727,-0.3991181 z m 8.72727,0 c 0.84,-0.219515 2.21455,-0.219515 3.05455,0 0.84,0.2195149 0.15272,0.3991181 -1.52728,0.3991181 -1.68,0 -2.36727,-0.1796032 -1.52727,-0.3991181 z m 8.72727,0 c 0.84,-0.219515 2.21455,-0.219515 3.05455,0 0.84,0.2195149 0.15273,0.3991181 -1.52727,0.3991181 -1.68,0 -2.36728,-0.1796032 -1.52728,-0.3991181 z m 8.72728,0 c 0.84,-0.219515 2.21454,-0.219515 3.05454,0 0.84,0.2195149 0.15273,0.3991181 -1.52727,0.3991181 -1.68,0 -2.36727,-0.1796032 -1.52727,-0.3991181 z m 8.72727,0 c 0.84,-0.219515 2.21454,-0.219515 3.05454,0 0.84,0.2195149 0.15273,0.3991181 -1.52727,0.3991181 -1.68,0 -2.36727,-0.1796032 -1.52727,-0.3991181 z m 8.72727,0 c 0.84,-0.219515 2.21455,-0.219515 3.05455,0 0.84,0.2195149 0.15272,0.3991181 -1.52728,0.3991181 -1.68,0 -2.36727,-0.1796032 -1.52727,-0.3991181 z m 8.72727,0 c 0.84,-0.219515 2.21455,-0.219515 3.05455,0 0.84,0.2195149 0.15273,0.3991181 -1.52727,0.3991181 -1.68,0 -2.36728,-0.1796032 -1.52728,-0.3991181 z m 8.72728,0 c 0.84,-0.219515 2.21454,-0.219515 3.05454,0 0.84,0.2195149 0.15273,0.3991181 -1.52727,0.3991181 -1.68,0 -2.36727,-0.1796032 -1.52727,-0.3991181 z m 8.72727,0 c 0.84,-0.219515 2.21454,-0.219515 3.05454,0 0.84,0.2195149 0.15273,0.3991181 -1.52727,0.3991181 -1.68,0 -2.36727,-0.1796032 -1.52727,-0.3991181 z m 8.72727,0 c 0.84,-0.219515 2.21455,-0.219515 3.05455,0 0.84,0.2195149 0.15272,0.3991181 -1.52728,0.3991181 -1.68,0 -2.36727,-0.1796032 -1.52727,-0.3991181 z"
       id="path22"
       inkscape:connector-curvature="0" />
    <path
       style="fill:#767676;fill-opacity:1;stroke-width:0.87272727"
       d="m 88.363634,38.671133 c 0.84,-0.219515 2.214545,-0.219515 3.054545,0 0.84,0.219515 0.152728,0.399118 -1.527272,0.399118 -1.68,0 -2.367273,-0.179603 -1.527273,-0.399118 z m 8.727272,0 c 0.84,-0.219515 2.214546,-0.219515 3.054544,0 0.84,0.219515 0.15273,0.399118 -1.527271,0.399118 -1.68,0 -2.367273,-0.179603 -1.527273,-0.399118 z m 8.727274,0 c 0.84,-0.219515 2.21454,-0.219515 3.05454,0 0.84,0.219515 0.15273,0.399118 -1.52727,0.399118 -1.68,0 -2.36727,-0.179603 -1.52727,-0.399118 z m 8.72727,0 c 0.84,-0.219515 2.21455,-0.219515 3.05455,0 0.84,0.219515 0.15272,0.399118 -1.52728,0.399118 -1.68,0 -2.36727,-0.179603 -1.52727,-0.399118 z m 8.72727,0 c 0.84,-0.219515 2.21455,-0.219515 3.05455,0 0.84,0.219515 0.15273,0.399118 -1.52727,0.399118 -1.68,0 -2.36728,-0.179603 -1.52728,-0.399118 z m 8.72728,0 c 0.84,-0.219515 2.21454,-0.219515 3.05454,0 0.84,0.219515 0.15273,0.399118 -1.52727,0.399118 -1.68,0 -2.36727,-0.179603 -1.52727,-0.399118 z m 8.72727,0 c 0.84,-0.219515 2.21454,-0.219515 3.05454,0 0.84,0.219515 0.15273,0.399118 -1.52727,0.399118 -1.68,0 -2.36727,-0.179603 -1.52727,-0.399118 z m 8.72727,0 c 0.84,-0.219515 2.21455,-0.219515 3.05455,0 0.84,0.219515 0.15272,0.399118 -1.52728,0.399118 -1.68,0 -2.36727,-0.179603 -1.52727,-0.399118 z m 8.72727,0 c 0.84,-0.219515 2.21455,-0.219515 3.05455,0 0.84,0.219515 0.15273,0.399118 -1.52727,0.399118 -1.68,0 -2.36728,-0.179603 -1.52728,-0.399118 z m 8.72728,0 c 0.84,-0.219515 2.21454,-0.219515 3.05454,0 0.84,0.219515 0.15273,0.399118 -1.52727,0.399118 -1.68,0 -2.36727,-0.179603 -1.52727,-0.399118 z m 7.83883,-2.889316 c 0,-1.68 0.17961,-2.367272 0.39913,-1.527272 0.21951,0.84 0.21951,2.214545 0,3.054545 -0.21952,0.84 -0.39913,0.152727 -0.39913,-1.527273 z M 87.475198,32.290908 c 0,-1.68 0.179607,-2.367272 0.399124,-1.527272 0.219508,0.84 0.219508,2.214545 0,3.054545 -0.219517,0.84 -0.399124,0.152727 -0.399124,-1.527273 z m 87.272722,-5.236363 c 0,-1.68 0.17961,-2.367273 0.39913,-1.527273 0.21951,0.84 0.21951,2.214545 0,3.054545 -0.21952,0.84 -0.39913,0.152728 -0.39913,-1.527272 z M 87.475198,23.563636 c 0,-1.68 0.179607,-2.367273 0.399124,-1.527273 0.219508,0.84 0.219508,2.214545 0,3.054545 -0.219517,0.84 -0.399124,0.152728 -0.399124,-1.527272 z m 87.272722,-5.236364 c 0,-1.68 0.17961,-2.367272 0.39913,-1.527272 0.21951,0.84 0.21951,2.214545 0,3.054545 -0.21952,0.84 -0.39913,0.152727 -0.39913,-1.527273 z M 87.475198,14.836363 c 0,-1.68 0.179607,-2.367272 0.399124,-1.527272 0.219508,0.84 0.219508,2.214545 0,3.054545 -0.219517,0.84 -0.399124,0.152727 -0.399124,-1.527273 z M 174.74792,9.5999998 c 0,-1.68 0.17961,-2.3672727 0.39913,-1.5272727 0.21951,0.8399999 0.21951,2.2145449 0,3.0545449 -0.21952,0.84 -0.39913,0.152728 -0.39913,-1.5272722 z M 87.475198,6.1090907 c 0,-1.6799999 0.179607,-2.3672726 0.399124,-1.5272726 0.219508,0.8399999 0.219508,2.2145454 0,3.0545453 -0.219517,0.84 -0.399124,0.1527273 -0.399124,-1.5272727 z M 1.0909091,3.7620431 c 0.8399999,-0.219515 2.2145454,-0.219515 3.0545453,0 0.84,0.2195149 0.1527273,0.3991181 -1.5272727,0.3991181 -1.67999991,0 -2.36727262,-0.1796032 -1.5272726,-0.3991181 z m 8.7272724,0 c 0.8400005,-0.219515 2.2145455,-0.219515 3.0545455,0 0.84,0.2195149 0.152727,0.3991181 -1.527273,0.3991181 -1.6799997,0 -2.3672724,-0.1796032 -1.5272725,-0.3991181 z m 8.7272725,0 c 0.84,-0.219515 2.214545,-0.219515 3.054545,0 0.84,0.2195149 0.152728,0.3991181 -1.527272,0.3991181 -1.68,0 -2.367273,-0.1796032 -1.527273,-0.3991181 z m 8.727273,0 c 0.839999,-0.219515 2.214545,-0.219515 3.054545,0 0.84,0.2195149 0.152727,0.3991181 -1.527273,0.3991181 -1.68,0 -2.367272,-0.1796032 -1.527272,-0.3991181 z m 8.727272,0 c 0.84,-0.219515 2.214545,-0.219515 3.054545,0 0.84,0.2195149 0.152728,0.3991181 -1.527272,0.3991181 -1.68,0 -2.367273,-0.1796032 -1.527273,-0.3991181 z m 8.727272,0 c 0.84,-0.219515 2.214546,-0.219515 3.054546,0 0.84,0.2195149 0.152727,0.3991181 -1.527273,0.3991181 -1.68,0 -2.367272,-0.1796032 -1.527273,-0.3991181 z m 8.727273,0 c 0.84,-0.219515 2.214545,-0.219515 3.054545,0 0.84,0.2195149 0.152728,0.3991181 -1.527272,0.3991181 -1.68,0 -2.367273,-0.1796032 -1.527273,-0.3991181 z m 8.727272,0 c 0.84,-0.219515 2.214546,-0.219515 3.054546,0 0.84,0.2195149 0.152727,0.3991181 -1.527273,0.3991181 -1.68,0 -2.367273,-0.1796032 -1.527273,-0.3991181 z m 8.727273,0 c 0.84,-0.219515 2.214545,-0.219515 3.054545,0 0.84,0.2195149 0.152728,0.3991181 -1.527272,0.3991181 -1.68,0 -2.367273,-0.1796032 -1.527273,-0.3991181 z m 8.727272,0 c 0.84,-0.219515 2.214546,-0.219515 3.054546,0 0.84,0.2195149 0.152727,0.3991181 -1.527273,0.3991181 -1.68,0 -2.367273,-0.1796032 -1.527273,-0.3991181 z m 95.999999,0 c 0.84,-0.219515 2.21454,-0.219515 3.05454,0 0.84,0.2195149 0.15273,0.3991181 -1.52727,0.3991181 -1.68,0 -2.36727,-0.1796032 -1.52727,-0.3991181 z m 8.72727,0 c 0.84,-0.219515 2.21455,-0.219515 3.05455,0 0.84,0.2195149 0.15272,0.3991181 -1.52728,0.3991181 -1.68,0 -2.36727,-0.1796032 -1.52727,-0.3991181 z m 8.72727,0 c 0.84,-0.219515 2.21455,-0.219515 3.05455,0 0.84,0.2195149 0.15273,0.3991181 -1.52727,0.3991181 -1.68,0 -2.36728,-0.1796032 -1.52728,-0.3991181 z m 8.72728,0 c 0.84,-0.219515 2.21454,-0.219515 3.05454,0 0.84,0.2195149 0.15273,0.3991181 -1.52727,0.3991181 -1.68,0 -2.36727,-0.1796032 -1.52727,-0.3991181 z m 8.72727,0 c 0.84,-0.219515 2.21454,-0.219515 3.05454,0 0.84,0.2195149 0.15273,0.3991181 -1.52727,0.3991181 -1.68,0 -2.36727,-0.1796032 -1.52727,-0.3991181 z m 8.72727,0 c 0.84,-0.219515 2.21455,-0.219515 3.05455,0 0.84,0.2195149 0.15272,0.3991181 -1.52728,0.3991181 -1.68,0 -2.36727,-0.1796032 -1.52727,-0.3991181 z m 8.72727,0 c 0.84,-0.219515 2.21455,-0.219515 3.05455,0 0.84,0.2195149 0.15273,0.3991181 -1.52727,0.3991181 -1.68,0 -2.36728,-0.1796032 -1.52728,-0.3991181 z m 8.72728,0 c 0.84,-0.219515 2.21454,-0.219515 3.05454,0 0.84,0.2195149 0.15273,0.3991181 -1.52727,0.3991181 -1.68,0 -2.36727,-0.1796032 -1.52727,-0.3991181 z m 8.72727,0 c 0.84,-0.219515 2.21454,-0.219515 3.05454,0 0.84,0.2195149 0.15273,0.3991181 -1.52727,0.3991181 -1.68,0 -2.36727,-0.1796032 -1.52727,-0.3991181 z m 8.72727,0 c 0.84,-0.219515 2.21455,-0.219515 3.05455,0 0.84,0.2195149 0.15272,0.3991181 -1.52728,0.3991181 -1.68,0 -2.36727,-0.1796032 -1.52727,-0.3991181 z"
       id="path20"
       inkscape:connector-curvature="0" />
    <path
       style="fill:#606060;fill-opacity:1;stroke-width:0.87272727"
       d="m 88.363634,38.671133 c 0.84,-0.219515 2.214545,-0.219515 3.054545,0 0.84,0.219515 0.152728,0.399118 -1.527272,0.399118 -1.68,0 -2.367273,-0.179603 -1.527273,-0.399118 z m 8.727272,0 c 0.84,-0.219515 2.214546,-0.219515 3.054544,0 0.84,0.219515 0.15273,0.399118 -1.527271,0.399118 -1.68,0 -2.367273,-0.179603 -1.527273,-0.399118 z m 8.727274,0 c 0.84,-0.219515 2.21454,-0.219515 3.05454,0 0.84,0.219515 0.15273,0.399118 -1.52727,0.399118 -1.68,0 -2.36727,-0.179603 -1.52727,-0.399118 z m 8.72727,0 c 0.84,-0.219515 2.21455,-0.219515 3.05455,0 0.84,0.219515 0.15272,0.399118 -1.52728,0.399118 -1.68,0 -2.36727,-0.179603 -1.52727,-0.399118 z m 8.72727,0 c 0.84,-0.219515 2.21455,-0.219515 3.05455,0 0.84,0.219515 0.15273,0.399118 -1.52727,0.399118 -1.68,0 -2.36728,-0.179603 -1.52728,-0.399118 z m 8.72728,0 c 0.84,-0.219515 2.21454,-0.219515 3.05454,0 0.84,0.219515 0.15273,0.399118 -1.52727,0.399118 -1.68,0 -2.36727,-0.179603 -1.52727,-0.399118 z m 8.72727,0 c 0.84,-0.219515 2.21454,-0.219515 3.05454,0 0.84,0.219515 0.15273,0.399118 -1.52727,0.399118 -1.68,0 -2.36727,-0.179603 -1.52727,-0.399118 z m 8.72727,0 c 0.84,-0.219515 2.21455,-0.219515 3.05455,0 0.84,0.219515 0.15272,0.399118 -1.52728,0.399118 -1.68,0 -2.36727,-0.179603 -1.52727,-0.399118 z m 8.72727,0 c 0.84,-0.219515 2.21455,-0.219515 3.05455,0 0.84,0.219515 0.15273,0.399118 -1.52727,0.399118 -1.68,0 -2.36728,-0.179603 -1.52728,-0.399118 z m 8.72728,0 c 0.84,-0.219515 2.21454,-0.219515 3.05454,0 0.84,0.219515 0.15273,0.399118 -1.52727,0.399118 -1.68,0 -2.36727,-0.179603 -1.52727,-0.399118 z m 7.83883,-2.889316 c 0,-1.68 0.17961,-2.367272 0.39913,-1.527272 0.21951,0.84 0.21951,2.214545 0,3.054545 -0.21952,0.84 -0.39913,0.152727 -0.39913,-1.527273 z M 87.475198,32.290908 c 0,-1.68 0.179607,-2.367272 0.399124,-1.527272 0.219508,0.84 0.219508,2.214545 0,3.054545 -0.219517,0.84 -0.399124,0.152727 -0.399124,-1.527273 z m 87.272722,-5.236363 c 0,-1.68 0.17961,-2.367273 0.39913,-1.527273 0.21951,0.84 0.21951,2.214545 0,3.054545 -0.21952,0.84 -0.39913,0.152728 -0.39913,-1.527272 z M 87.475198,23.563636 c 0,-1.68 0.179607,-2.367273 0.399124,-1.527273 0.219508,0.84 0.219508,2.214545 0,3.054545 -0.219517,0.84 -0.399124,0.152728 -0.399124,-1.527272 z m 87.272722,-5.236364 c 0,-1.68 0.17961,-2.367272 0.39913,-1.527272 0.21951,0.84 0.21951,2.214545 0,3.054545 -0.21952,0.84 -0.39913,0.152727 -0.39913,-1.527273 z M 87.475198,14.836363 c 0,-1.68 0.179607,-2.367272 0.399124,-1.527272 0.219508,0.84 0.219508,2.214545 0,3.054545 -0.219517,0.84 -0.399124,0.152727 -0.399124,-1.527273 z M 174.74792,9.5999998 c 0,-1.68 0.17961,-2.3672727 0.39913,-1.5272727 0.21951,0.8399999 0.21951,2.2145449 0,3.0545449 -0.21952,0.84 -0.39913,0.152728 -0.39913,-1.5272722 z M 87.475198,6.1090907 c 0,-1.6799999 0.179607,-2.3672726 0.399124,-1.5272726 0.219508,0.8399999 0.219508,2.2145454 0,3.0545453 -0.219517,0.84 -0.399124,0.1527273 -0.399124,-1.5272727 z M 1.0909091,3.7620431 c 0.8399999,-0.219515 2.2145454,-0.219515 3.0545453,0 0.84,0.2195149 0.1527273,0.3991181 -1.5272727,0.3991181 -1.67999991,0 -2.36727262,-0.1796032 -1.5272726,-0.3991181 z m 8.7272724,0 c 0.8400005,-0.219515 2.2145455,-0.219515 3.0545455,0 0.84,0.2195149 0.152727,0.3991181 -1.527273,0.3991181 -1.6799997,0 -2.3672724,-0.1796032 -1.5272725,-0.3991181 z m 8.7272725,0 c 0.84,-0.219515 2.214545,-0.219515 3.054545,0 0.84,0.2195149 0.152728,0.3991181 -1.527272,0.3991181 -1.68,0 -2.367273,-0.1796032 -1.527273,-0.3991181 z m 8.727273,0 c 0.839999,-0.219515 2.214545,-0.219515 3.054545,0 0.84,0.2195149 0.152727,0.3991181 -1.527273,0.3991181 -1.68,0 -2.367272,-0.1796032 -1.527272,-0.3991181 z m 8.727272,0 c 0.84,-0.219515 2.214545,-0.219515 3.054545,0 0.84,0.2195149 0.152728,0.3991181 -1.527272,0.3991181 -1.68,0 -2.367273,-0.1796032 -1.527273,-0.3991181 z m 8.727272,0 c 0.84,-0.219515 2.214546,-0.219515 3.054546,0 0.84,0.2195149 0.152727,0.3991181 -1.527273,0.3991181 -1.68,0 -2.367272,-0.1796032 -1.527273,-0.3991181 z m 8.727273,0 c 0.84,-0.219515 2.214545,-0.219515 3.054545,0 0.84,0.2195149 0.152728,0.3991181 -1.527272,0.3991181 -1.68,0 -2.367273,-0.1796032 -1.527273,-0.3991181 z m 8.727272,0 c 0.84,-0.219515 2.214546,-0.219515 3.054546,0 0.84,0.2195149 0.152727,0.3991181 -1.527273,0.3991181 -1.68,0 -2.367273,-0.1796032 -1.527273,-0.3991181 z m 8.727273,0 c 0.84,-0.219515 2.214545,-0.219515 3.054545,0 0.84,0.2195149 0.152728,0.3991181 -1.527272,0.3991181 -1.68,0 -2.367273,-0.1796032 -1.527273,-0.3991181 z m 8.727272,0 c 0.84,-0.219515 2.214546,-0.219515 3.054546,0 0.84,0.2195149 0.152727,0.3991181 -1.527273,0.3991181 -1.68,0 -2.367273,-0.1796032 -1.527273,-0.3991181 z m 95.999999,0 c 0.84,-0.219515 2.21454,-0.219515 3.05454,0 0.84,0.2195149 0.15273,0.3991181 -1.52727,0.3991181 -1.68,0 -2.36727,-0.1796032 -1.52727,-0.3991181 z m 8.72727,0 c 0.84,-0.219515 2.21455,-0.219515 3.05455,0 0.84,0.2195149 0.15272,0.3991181 -1.52728,0.3991181 -1.68,0 -2.36727,-0.1796032 -1.52727,-0.3991181 z m 8.72727,0 c 0.84,-0.219515 2.21455,-0.219515 3.05455,0 0.84,0.2195149 0.15273,0.3991181 -1.52727,0.3991181 -1.68,0 -2.36728,-0.1796032 -1.52728,-0.3991181 z m 8.72728,0 c 0.84,-0.219515 2.21454,-0.219515 3.05454,0 0.84,0.2195149 0.15273,0.3991181 -1.52727,0.3991181 -1.68,0 -2.36727,-0.1796032 -1.52727,-0.3991181 z m 8.72727,0 c 0.84,-0.219515 2.21454,-0.219515 3.05454,0 0.84,0.2195149 0.15273,0.3991181 -1.52727,0.3991181 -1.68,0 -2.36727,-0.1796032 -1.52727,-0.3991181 z m 8.72727,0 c 0.84,-0.219515 2.21455,-0.219515 3.05455,0 0.84,0.2195149 0.15272,0.3991181 -1.52728,0.3991181 -1.68,0 -2.36727,-0.1796032 -1.52727,-0.3991181 z m 8.72727,0 c 0.84,-0.219515 2.21455,-0.219515 3.05455,0 0.84,0.2195149 0.15273,0.3991181 -1.52727,0.3991181 -1.68,0 -2.36728,-0.1796032 -1.52728,-0.3991181 z m 8.72728,0 c 0.84,-0.219515 2.21454,-0.219515 3.05454,0 0.84,0.2195149 0.15273,0.3991181 -1.52727,0.3991181 -1.68,0 -2.36727,-0.1796032 -1.52727,-0.3991181 z m 8.72727,0 c 0.84,-0.219515 2.21454,-0.219515 3.05454,0 0.84,0.2195149 0.15273,0.3991181 -1.52727,0.3991181 -1.68,0 -2.36727,-0.1796032 -1.52727,-0.3991181 z m 8.72727,0 c 0.84,-0.219515 2.21455,-0.219515 3.05455,0 0.84,0.2195149 0.15272,0.3991181 -1.52728,0.3991181 -1.68,0 -2.36727,-0.1796032 -1.52727,-0.3991181 z"
       id="path18"
       inkscape:connector-curvature="0" />
    <path
       style="fill:#494949;fill-opacity:1;stroke-width:0.87272727"
       d="m 88.363634,38.671133 c 0.84,-0.219515 2.214545,-0.219515 3.054545,0 0.84,0.219515 0.152728,0.399118 -1.527272,0.399118 -1.68,0 -2.367273,-0.179603 -1.527273,-0.399118 z m 8.727272,0 c 0.84,-0.219515 2.214546,-0.219515 3.054544,0 0.84,0.219515 0.15273,0.399118 -1.527271,0.399118 -1.68,0 -2.367273,-0.179603 -1.527273,-0.399118 z m 8.727274,0 c 0.84,-0.219515 2.21454,-0.219515 3.05454,0 0.84,0.219515 0.15273,0.399118 -1.52727,0.399118 -1.68,0 -2.36727,-0.179603 -1.52727,-0.399118 z m 8.72727,0 c 0.84,-0.219515 2.21455,-0.219515 3.05455,0 0.84,0.219515 0.15272,0.399118 -1.52728,0.399118 -1.68,0 -2.36727,-0.179603 -1.52727,-0.399118 z m 8.72727,0 c 0.84,-0.219515 2.21455,-0.219515 3.05455,0 0.84,0.219515 0.15273,0.399118 -1.52727,0.399118 -1.68,0 -2.36728,-0.179603 -1.52728,-0.399118 z m 8.72728,0 c 0.84,-0.219515 2.21454,-0.219515 3.05454,0 0.84,0.219515 0.15273,0.399118 -1.52727,0.399118 -1.68,0 -2.36727,-0.179603 -1.52727,-0.399118 z m 8.72727,0 c 0.84,-0.219515 2.21454,-0.219515 3.05454,0 0.84,0.219515 0.15273,0.399118 -1.52727,0.399118 -1.68,0 -2.36727,-0.179603 -1.52727,-0.399118 z m 8.72727,0 c 0.84,-0.219515 2.21455,-0.219515 3.05455,0 0.84,0.219515 0.15272,0.399118 -1.52728,0.399118 -1.68,0 -2.36727,-0.179603 -1.52727,-0.399118 z m 8.72727,0 c 0.84,-0.219515 2.21455,-0.219515 3.05455,0 0.84,0.219515 0.15273,0.399118 -1.52727,0.399118 -1.68,0 -2.36728,-0.179603 -1.52728,-0.399118 z m 8.72728,0 c 0.84,-0.219515 2.21454,-0.219515 3.05454,0 0.84,0.219515 0.15273,0.399118 -1.52727,0.399118 -1.68,0 -2.36727,-0.179603 -1.52727,-0.399118 z m 7.83883,-2.889316 c 0,-1.68 0.17961,-2.367272 0.39913,-1.527272 0.21951,0.84 0.21951,2.214545 0,3.054545 -0.21952,0.84 -0.39913,0.152727 -0.39913,-1.527273 z M 87.475198,32.290908 c 0,-1.68 0.179607,-2.367272 0.399124,-1.527272 0.219508,0.84 0.219508,2.214545 0,3.054545 -0.219517,0.84 -0.399124,0.152727 -0.399124,-1.527273 z m 87.272722,-5.236363 c 0,-1.68 0.17961,-2.367273 0.39913,-1.527273 0.21951,0.84 0.21951,2.214545 0,3.054545 -0.21952,0.84 -0.39913,0.152728 -0.39913,-1.527272 z M 87.475198,23.563636 c 0,-1.68 0.179607,-2.367273 0.399124,-1.527273 0.219508,0.84 0.219508,2.214545 0,3.054545 -0.219517,0.84 -0.399124,0.152728 -0.399124,-1.527272 z m 87.272722,-5.236364 c 0,-1.68 0.17961,-2.367272 0.39913,-1.527272 0.21951,0.84 0.21951,2.214545 0,3.054545 -0.21952,0.84 -0.39913,0.152727 -0.39913,-1.527273 z M 87.475198,14.836363 c 0,-1.68 0.179607,-2.367272 0.399124,-1.527272 0.219508,0.84 0.219508,2.214545 0,3.054545 -0.219517,0.84 -0.399124,0.152727 -0.399124,-1.527273 z M 174.74792,9.5999998 c 0,-1.68 0.17961,-2.3672727 0.39913,-1.5272727 0.21951,0.8399999 0.21951,2.2145449 0,3.0545449 -0.21952,0.84 -0.39913,0.152728 -0.39913,-1.5272722 z M 87.475198,6.1090907 c 0,-1.6799999 0.179607,-2.3672726 0.399124,-1.5272726 0.219508,0.8399999 0.219508,2.2145454 0,3.0545453 -0.219517,0.84 -0.399124,0.1527273 -0.399124,-1.5272727 z M 1.0909091,3.7620431 c 0.8399999,-0.219515 2.2145454,-0.219515 3.0545453,0 0.84,0.2195149 0.1527273,0.3991181 -1.5272727,0.3991181 -1.67999991,0 -2.36727262,-0.1796032 -1.5272726,-0.3991181 z m 8.7272724,0 c 0.8400005,-0.219515 2.2145455,-0.219515 3.0545455,0 0.84,0.2195149 0.152727,0.3991181 -1.527273,0.3991181 -1.6799997,0 -2.3672724,-0.1796032 -1.5272725,-0.3991181 z m 8.7272725,0 c 0.84,-0.219515 2.214545,-0.219515 3.054545,0 0.84,0.2195149 0.152728,0.3991181 -1.527272,0.3991181 -1.68,0 -2.367273,-0.1796032 -1.527273,-0.3991181 z m 8.727273,0 c 0.839999,-0.219515 2.214545,-0.219515 3.054545,0 0.84,0.2195149 0.152727,0.3991181 -1.527273,0.3991181 -1.68,0 -2.367272,-0.1796032 -1.527272,-0.3991181 z m 8.727272,0 c 0.84,-0.219515 2.214545,-0.219515 3.054545,0 0.84,0.2195149 0.152728,0.3991181 -1.527272,0.3991181 -1.68,0 -2.367273,-0.1796032 -1.527273,-0.3991181 z m 8.727272,0 c 0.84,-0.219515 2.214546,-0.219515 3.054546,0 0.84,0.2195149 0.152727,0.3991181 -1.527273,0.3991181 -1.68,0 -2.367272,-0.1796032 -1.527273,-0.3991181 z m 8.727273,0 c 0.84,-0.219515 2.214545,-0.219515 3.054545,0 0.84,0.2195149 0.152728,0.3991181 -1.527272,0.3991181 -1.68,0 -2.367273,-0.1796032 -1.527273,-0.3991181 z m 8.727272,0 c 0.84,-0.219515 2.214546,-0.219515 3.054546,0 0.84,0.2195149 0.152727,0.3991181 -1.527273,0.3991181 -1.68,0 -2.367273,-0.1796032 -1.527273,-0.3991181 z m 8.727273,0 c 0.84,-0.219515 2.214545,-0.219515 3.054545,0 0.84,0.2195149 0.152728,0.3991181 -1.527272,0.3991181 -1.68,0 -2.367273,-0.1796032 -1.527273,-0.3991181 z m 8.727272,0 c 0.84,-0.219515 2.214546,-0.219515 3.054546,0 0.84,0.2195149 0.152727,0.3991181 -1.527273,0.3991181 -1.68,0 -2.367273,-0.1796032 -1.527273,-0.3991181 z m 95.999999,0 c 0.84,-0.219515 2.21454,-0.219515 3.05454,0 0.84,0.2195149 0.15273,0.3991181 -1.52727,0.3991181 -1.68,0 -2.36727,-0.1796032 -1.52727,-0.3991181 z m 8.72727,0 c 0.84,-0.219515 2.21455,-0.219515 3.05455,0 0.84,0.2195149 0.15272,0.3991181 -1.52728,0.3991181 -1.68,0 -2.36727,-0.1796032 -1.52727,-0.3991181 z m 8.72727,0 c 0.84,-0.219515 2.21455,-0.219515 3.05455,0 0.84,0.2195149 0.15273,0.3991181 -1.52727,0.3991181 -1.68,0 -2.36728,-0.1796032 -1.52728,-0.3991181 z m 8.72728,0 c 0.84,-0.219515 2.21454,-0.219515 3.05454,0 0.84,0.2195149 0.15273,0.3991181 -1.52727,0.3991181 -1.68,0 -2.36727,-0.1796032 -1.52727,-0.3991181 z m 8.72727,0 c 0.84,-0.219515 2.21454,-0.219515 3.05454,0 0.84,0.2195149 0.15273,0.3991181 -1.52727,0.3991181 -1.68,0 -2.36727,-0.1796032 -1.52727,-0.3991181 z m 8.72727,0 c 0.84,-0.219515 2.21455,-0.219515 3.05455,0 0.84,0.2195149 0.15272,0.3991181 -1.52728,0.3991181 -1.68,0 -2.36727,-0.1796032 -1.52727,-0.3991181 z m 8.72727,0 c 0.84,-0.219515 2.21455,-0.219515 3.05455,0 0.84,0.2195149 0.15273,0.3991181 -1.52727,0.3991181 -1.68,0 -2.36728,-0.1796032 -1.52728,-0.3991181 z m 8.72728,0 c 0.84,-0.219515 2.21454,-0.219515 3.05454,0 0.84,0.2195149 0.15273,0.3991181 -1.52727,0.3991181 -1.68,0 -2.36727,-0.1796032 -1.52727,-0.3991181 z m 8.72727,0 c 0.84,-0.219515 2.21454,-0.219515 3.05454,0 0.84,0.2195149 0.15273,0.3991181 -1.52727,0.3991181 -1.68,0 -2.36727,-0.1796032 -1.52727,-0.3991181 z m 8.72727,0 c 0.84,-0.219515 2.21455,-0.219515 3.05455,0 0.84,0.2195149 0.15272,0.3991181 -1.52728,0.3991181 -1.68,0 -2.36727,-0.1796032 -1.52727,-0.3991181 z"
       id="path16"
       inkscape:connector-curvature="0" />
    <path
       style="fill:#333333;fill-opacity:1;stroke-width:0.87272727"
       d="m 88.363634,38.671133 c 0.84,-0.219515 2.214545,-0.219515 3.054545,0 0.84,0.219515 0.152728,0.399118 -1.527272,0.399118 -1.68,0 -2.367273,-0.179603 -1.527273,-0.399118 z m 8.727272,0 c 0.84,-0.219515 2.214546,-0.219515 3.054544,0 0.84,0.219515 0.15273,0.399118 -1.527271,0.399118 -1.68,0 -2.367273,-0.179603 -1.527273,-0.399118 z m 8.727274,0 c 0.84,-0.219515 2.21454,-0.219515 3.05454,0 0.84,0.219515 0.15273,0.399118 -1.52727,0.399118 -1.68,0 -2.36727,-0.179603 -1.52727,-0.399118 z m 8.72727,0 c 0.84,-0.219515 2.21455,-0.219515 3.05455,0 0.84,0.219515 0.15272,0.399118 -1.52728,0.399118 -1.68,0 -2.36727,-0.179603 -1.52727,-0.399118 z m 8.72727,0 c 0.84,-0.219515 2.21455,-0.219515 3.05455,0 0.84,0.219515 0.15273,0.399118 -1.52727,0.399118 -1.68,0 -2.36728,-0.179603 -1.52728,-0.399118 z m 8.72728,0 c 0.84,-0.219515 2.21454,-0.219515 3.05454,0 0.84,0.219515 0.15273,0.399118 -1.52727,0.399118 -1.68,0 -2.36727,-0.179603 -1.52727,-0.399118 z m 8.72727,0 c 0.84,-0.219515 2.21454,-0.219515 3.05454,0 0.84,0.219515 0.15273,0.399118 -1.52727,0.399118 -1.68,0 -2.36727,-0.179603 -1.52727,-0.399118 z m 8.72727,0 c 0.84,-0.219515 2.21455,-0.219515 3.05455,0 0.84,0.219515 0.15272,0.399118 -1.52728,0.399118 -1.68,0 -2.36727,-0.179603 -1.52727,-0.399118 z m 8.72727,0 c 0.84,-0.219515 2.21455,-0.219515 3.05455,0 0.84,0.219515 0.15273,0.399118 -1.52727,0.399118 -1.68,0 -2.36728,-0.179603 -1.52728,-0.399118 z m 8.72728,0 c 0.84,-0.219515 2.21454,-0.219515 3.05454,0 0.84,0.219515 0.15273,0.399118 -1.52727,0.399118 -1.68,0 -2.36727,-0.179603 -1.52727,-0.399118 z m 7.83883,-2.889316 c 0,-1.68 0.17961,-2.367272 0.39913,-1.527272 0.21951,0.84 0.21951,2.214545 0,3.054545 -0.21952,0.84 -0.39913,0.152727 -0.39913,-1.527273 z M 87.475198,32.290908 c 0,-1.68 0.179607,-2.367272 0.399124,-1.527272 0.219508,0.84 0.219508,2.214545 0,3.054545 -0.219517,0.84 -0.399124,0.152727 -0.399124,-1.527273 z m 87.272722,-5.236363 c 0,-1.68 0.17961,-2.367273 0.39913,-1.527273 0.21951,0.84 0.21951,2.214545 0,3.054545 -0.21952,0.84 -0.39913,0.152728 -0.39913,-1.527272 z M 87.475198,23.563636 c 0,-1.68 0.179607,-2.367273 0.399124,-1.527273 0.219508,0.84 0.219508,2.214545 0,3.054545 -0.219517,0.84 -0.399124,0.152728 -0.399124,-1.527272 z m 87.272722,-5.236364 c 0,-1.68 0.17961,-2.367272 0.39913,-1.527272 0.21951,0.84 0.21951,2.214545 0,3.054545 -0.21952,0.84 -0.39913,0.152727 -0.39913,-1.527273 z M 87.475198,14.836363 c 0,-1.68 0.179607,-2.367272 0.399124,-1.527272 0.219508,0.84 0.219508,2.214545 0,3.054545 -0.219517,0.84 -0.399124,0.152727 -0.399124,-1.527273 z M 174.74792,9.5999998 c 0,-1.68 0.17961,-2.3672727 0.39913,-1.5272727 0.21951,0.8399999 0.21951,2.2145449 0,3.0545449 -0.21952,0.84 -0.39913,0.152728 -0.39913,-1.5272722 z M 87.475198,6.1090907 c 0,-1.6799999 0.179607,-2.3672726 0.399124,-1.5272726 0.219508,0.8399999 0.219508,2.2145454 0,3.0545453 -0.219517,0.84 -0.399124,0.1527273 -0.399124,-1.5272727 z M 1.0909091,3.7620431 c 0.8399999,-0.219515 2.2145454,-0.219515 3.0545453,0 0.84,0.2195149 0.1527273,0.3991181 -1.5272727,0.3991181 -1.67999991,0 -2.36727262,-0.1796032 -1.5272726,-0.3991181 z m 8.7272724,0 c 0.8400005,-0.219515 2.2145455,-0.219515 3.0545455,0 0.84,0.2195149 0.152727,0.3991181 -1.527273,0.3991181 -1.6799997,0 -2.3672724,-0.1796032 -1.5272725,-0.3991181 z m 8.7272725,0 c 0.84,-0.219515 2.214545,-0.219515 3.054545,0 0.84,0.2195149 0.152728,0.3991181 -1.527272,0.3991181 -1.68,0 -2.367273,-0.1796032 -1.527273,-0.3991181 z m 8.727273,0 c 0.839999,-0.219515 2.214545,-0.219515 3.054545,0 0.84,0.2195149 0.152727,0.3991181 -1.527273,0.3991181 -1.68,0 -2.367272,-0.1796032 -1.527272,-0.3991181 z m 8.727272,0 c 0.84,-0.219515 2.214545,-0.219515 3.054545,0 0.84,0.2195149 0.152728,0.3991181 -1.527272,0.3991181 -1.68,0 -2.367273,-0.1796032 -1.527273,-0.3991181 z m 8.727272,0 c 0.84,-0.219515 2.214546,-0.219515 3.054546,0 0.84,0.2195149 0.152727,0.3991181 -1.527273,0.3991181 -1.68,0 -2.367272,-0.1796032 -1.527273,-0.3991181 z m 8.727273,0 c 0.84,-0.219515 2.214545,-0.219515 3.054545,0 0.84,0.2195149 0.152728,0.3991181 -1.527272,0.3991181 -1.68,0 -2.367273,-0.1796032 -1.527273,-0.3991181 z m 8.727272,0 c 0.84,-0.219515 2.214546,-0.219515 3.054546,0 0.84,0.2195149 0.152727,0.3991181 -1.527273,0.3991181 -1.68,0 -2.367273,-0.1796032 -1.527273,-0.3991181 z m 8.727273,0 c 0.84,-0.219515 2.214545,-0.219515 3.054545,0 0.84,0.2195149 0.152728,0.3991181 -1.527272,0.3991181 -1.68,0 -2.367273,-0.1796032 -1.527273,-0.3991181 z m 8.727272,0 c 0.84,-0.219515 2.214546,-0.219515 3.054546,0 0.84,0.2195149 0.152727,0.3991181 -1.527273,0.3991181 -1.68,0 -2.367273,-0.1796032 -1.527273,-0.3991181 z m 95.999999,0 c 0.84,-0.219515 2.21454,-0.219515 3.05454,0 0.84,0.2195149 0.15273,0.3991181 -1.52727,0.3991181 -1.68,0 -2.36727,-0.1796032 -1.52727,-0.3991181 z m 8.72727,0 c 0.84,-0.219515 2.21455,-0.219515 3.05455,0 0.84,0.2195149 0.15272,0.3991181 -1.52728,0.3991181 -1.68,0 -2.36727,-0.1796032 -1.52727,-0.3991181 z m 8.72727,0 c 0.84,-0.219515 2.21455,-0.219515 3.05455,0 0.84,0.2195149 0.15273,0.3991181 -1.52727,0.3991181 -1.68,0 -2.36728,-0.1796032 -1.52728,-0.3991181 z m 8.72728,0 c 0.84,-0.219515 2.21454,-0.219515 3.05454,0 0.84,0.2195149 0.15273,0.3991181 -1.52727,0.3991181 -1.68,0 -2.36727,-0.1796032 -1.52727,-0.3991181 z m 8.72727,0 c 0.84,-0.219515 2.21454,-0.219515 3.05454,0 0.84,0.2195149 0.15273,0.3991181 -1.52727,0.3991181 -1.68,0 -2.36727,-0.1796032 -1.52727,-0.3991181 z m 8.72727,0 c 0.84,-0.219515 2.21455,-0.219515 3.05455,0 0.84,0.2195149 0.15272,0.3991181 -1.52728,0.3991181 -1.68,0 -2.36727,-0.1796032 -1.52727,-0.3991181 z m 8.72727,0 c 0.84,-0.219515 2.21455,-0.219515 3.05455,0 0.84,0.2195149 0.15273,0.3991181 -1.52727,0.3991181 -1.68,0 -2.36728,-0.1796032 -1.52728,-0.3991181 z m 8.72728,0 c 0.84,-0.219515 2.21454,-0.219515 3.05454,0 0.84,0.2195149 0.15273,0.3991181 -1.52727,0.3991181 -1.68,0 -2.36727,-0.1796032 -1.52727,-0.3991181 z m 8.72727,0 c 0.84,-0.219515 2.21454,-0.219515 3.05454,0 0.84,0.2195149 0.15273,0.3991181 -1.52727,0.3991181 -1.68,0 -2.36727,-0.1796032 -1.52727,-0.3991181 z m 8.72727,0 c 0.84,-0.219515 2.21455,-0.219515 3.05455,0 0.84,0.2195149 0.15272,0.3991181 -1.52728,0.3991181 -1.68,0 -2.36727,-0.1796032 -1.52727,-0.3991181 z"
       id="path14"
       inkscape:connector-curvature="0" />
  </g>
</svg>
